<!-- Pocket icon by Icons8 -->
<svg 
    xmlns="http://www.w3.org/2000/svg" 
    xmlns:xlink="http://www.w3.org/1999/xlink" version="1.0" x="0px" y="0px" viewBox="3 4 18 18" class="icon icons8-Pocket">
    <path d="M 5 4 C 3.766 4 3 4.766 3 6 L 3 11 C 3 15.962 7.038 20 12 20 C 16.962 20 21 15.962 21 11 L 21 6 C 21 4.766 20.234 4 19 4 L 5 4 z M 6 6 L 18 6 C 18.552 6 19 6.448 19 7 L 19 10.8125 C 19 14.6185 16.055 17.911 12.25 18 C 7.982 18.1 5 15.229 5 11 L 5 7 C 5 6.448 5.448 6 6 6 z M 7.71875 8.6875 C 7.470875 8.693875 7.21925 8.78075 7.03125 8.96875 C 6.63025 9.36975 6.6465 10.02025 7.0625 10.40625 L 12 15 L 15.9375 11.40625 C 16.3585 11.02225 16.37175 10.37175 15.96875 9.96875 C 15.59675 9.59675 14.98975 9.56025 14.59375 9.90625 L 12 12.1875 L 8.40625 8.9375 C 8.20875 8.759 7.966625 8.681125 7.71875 8.6875 z"></path>
</svg>