<?xml version="1.0" encoding="UTF-8" standalone="no"?>
<!DOCTYPE svg PUBLIC "-//W3C//DTD SVG 1.1//EN"
 "http://www.w3.org/Graphics/SVG/1.1/DTD/svg11.dtd">
<!-- Generated by graphviz version 2.40.1 (20161225.0304)
 -->
<!-- Title: G Pages: 1 -->
<svg width="1790pt" height="188pt"
 viewBox="0.00 0.00 1790.00 188.00" xmlns="http://www.w3.org/2000/svg" xmlns:xlink="http://www.w3.org/1999/xlink">
<g id="graph0" class="graph" transform="scale(1 1) rotate(0) translate(4 184)">
<title>G</title>
<polygon fill="#ffffff" stroke="transparent" points="-4,4 -4,-184 1786,-184 1786,4 -4,4"/>
<!-- 0 -->
<g id="node1" class="node">
<title>0</title>
<ellipse fill="none" stroke="#000000" cx="891" cy="-162" rx="27" ry="18"/>
<text text-anchor="middle" x="891" y="-158.3" font-family="Times,serif" font-size="14.00" fill="#000000">0</text>
</g>
<!-- 1 -->
<g id="node2" class="node">
<title>1</title>
<ellipse fill="none" stroke="#000000" cx="207" cy="-90" rx="27" ry="18"/>
<text text-anchor="middle" x="207" y="-86.3" font-family="Times,serif" font-size="14.00" fill="#000000">1</text>
</g>
<!-- 0&#45;&gt;1 -->
<g id="edge1" class="edge">
<title>0&#45;&gt;1</title>
<path fill="none" stroke="#000000" d="M864.1864,-159.1775C757.9861,-147.9985 366.6862,-106.8091 244.0255,-93.8974"/>
<polygon fill="#000000" stroke="#000000" points="244.3102,-90.4081 233.9987,-92.842 243.5774,-97.3697 244.3102,-90.4081"/>
</g>
<!-- 2 -->
<g id="node3" class="node">
<title>2</title>
<ellipse fill="none" stroke="#000000" cx="567" cy="-90" rx="27" ry="18"/>
<text text-anchor="middle" x="567" y="-86.3" font-family="Times,serif" font-size="14.00" fill="#000000">2</text>
</g>
<!-- 0&#45;&gt;2 -->
<g id="edge2" class="edge">
<title>0&#45;&gt;2</title>
<path fill="none" stroke="#000000" d="M865.3054,-156.2901C807.7659,-143.5035 668.4572,-112.546 602.6106,-97.9135"/>
<polygon fill="#000000" stroke="#000000" points="603.2184,-94.4632 592.6972,-95.7105 601.6998,-101.2965 603.2184,-94.4632"/>
</g>
<!-- 3 -->
<g id="node4" class="node">
<title>3</title>
<ellipse fill="none" stroke="#000000" cx="891" cy="-90" rx="27" ry="18"/>
<text text-anchor="middle" x="891" y="-86.3" font-family="Times,serif" font-size="14.00" fill="#000000">3</text>
</g>
<!-- 0&#45;&gt;3 -->
<g id="edge3" class="edge">
<title>0&#45;&gt;3</title>
<path fill="none" stroke="#000000" d="M891,-143.8314C891,-136.131 891,-126.9743 891,-118.4166"/>
<polygon fill="#000000" stroke="#000000" points="894.5001,-118.4132 891,-108.4133 887.5001,-118.4133 894.5001,-118.4132"/>
</g>
<!-- 4 -->
<g id="node5" class="node">
<title>4</title>
<ellipse fill="none" stroke="#000000" cx="1215" cy="-90" rx="27" ry="18"/>
<text text-anchor="middle" x="1215" y="-86.3" font-family="Times,serif" font-size="14.00" fill="#000000">4</text>
</g>
<!-- 0&#45;&gt;4 -->
<g id="edge4" class="edge">
<title>0&#45;&gt;4</title>
<path fill="none" stroke="#000000" d="M916.6946,-156.2901C974.2341,-143.5035 1113.5428,-112.546 1179.3894,-97.9135"/>
<polygon fill="#000000" stroke="#000000" points="1180.3002,-101.2965 1189.3028,-95.7105 1178.7816,-94.4632 1180.3002,-101.2965"/>
</g>
<!-- 5 -->
<g id="node6" class="node">
<title>5</title>
<ellipse fill="none" stroke="#000000" cx="1575" cy="-90" rx="27" ry="18"/>
<text text-anchor="middle" x="1575" y="-86.3" font-family="Times,serif" font-size="14.00" fill="#000000">5</text>
</g>
<!-- 0&#45;&gt;5 -->
<g id="edge5" class="edge">
<title>0&#45;&gt;5</title>
<path fill="none" stroke="#000000" d="M917.8136,-159.1775C1024.0139,-147.9985 1415.3138,-106.8091 1537.9745,-93.8974"/>
<polygon fill="#000000" stroke="#000000" points="1538.4226,-97.3697 1548.0013,-92.842 1537.6898,-90.4081 1538.4226,-97.3697"/>
</g>
<!-- 6 -->
<g id="node7" class="node">
<title>6</title>
<ellipse fill="none" stroke="#000000" cx="27" cy="-18" rx="27" ry="18"/>
<text text-anchor="middle" x="27" y="-14.3" font-family="Times,serif" font-size="14.00" fill="#000000">6</text>
</g>
<!-- 1&#45;&gt;6 -->
<g id="edge6" class="edge">
<title>1&#45;&gt;6</title>
<path fill="none" stroke="#000000" d="M183.8366,-80.7347C152.3313,-68.1325 95.7927,-45.5171 59.8982,-31.1593"/>
<polygon fill="#000000" stroke="#000000" points="60.9442,-27.8081 50.3596,-27.3438 58.3444,-34.3075 60.9442,-27.8081"/>
</g>
<!-- 7 -->
<g id="node8" class="node">
<title>7</title>
<ellipse fill="none" stroke="#000000" cx="99" cy="-18" rx="27" ry="18"/>
<text text-anchor="middle" x="99" y="-14.3" font-family="Times,serif" font-size="14.00" fill="#000000">7</text>
</g>
<!-- 1&#45;&gt;7 -->
<g id="edge7" class="edge">
<title>1&#45;&gt;7</title>
<path fill="none" stroke="#000000" d="M187.6918,-77.1278C170.6445,-65.763 145.5981,-49.0654 126.4656,-36.3104"/>
<polygon fill="#000000" stroke="#000000" points="128.4031,-33.3956 118.1411,-30.7607 124.5201,-39.2199 128.4031,-33.3956"/>
</g>
<!-- 8 -->
<g id="node9" class="node">
<title>8</title>
<ellipse fill="none" stroke="#000000" cx="171" cy="-18" rx="27" ry="18"/>
<text text-anchor="middle" x="171" y="-14.3" font-family="Times,serif" font-size="14.00" fill="#000000">8</text>
</g>
<!-- 1&#45;&gt;8 -->
<g id="edge8" class="edge">
<title>1&#45;&gt;8</title>
<path fill="none" stroke="#000000" d="M198.2854,-72.5708C194.0403,-64.0807 188.8464,-53.6929 184.1337,-44.2674"/>
<polygon fill="#000000" stroke="#000000" points="187.237,-42.6477 179.6343,-35.2687 180.976,-45.7782 187.237,-42.6477"/>
</g>
<!-- 9 -->
<g id="node10" class="node">
<title>9</title>
<ellipse fill="none" stroke="#000000" cx="243" cy="-18" rx="27" ry="18"/>
<text text-anchor="middle" x="243" y="-14.3" font-family="Times,serif" font-size="14.00" fill="#000000">9</text>
</g>
<!-- 1&#45;&gt;9 -->
<g id="edge9" class="edge">
<title>1&#45;&gt;9</title>
<path fill="none" stroke="#000000" d="M215.7146,-72.5708C219.9597,-64.0807 225.1536,-53.6929 229.8663,-44.2674"/>
<polygon fill="#000000" stroke="#000000" points="233.024,-45.7782 234.3657,-35.2687 226.763,-42.6477 233.024,-45.7782"/>
</g>
<!-- 10 -->
<g id="node11" class="node">
<title>10</title>
<ellipse fill="none" stroke="#000000" cx="315" cy="-18" rx="27" ry="18"/>
<text text-anchor="middle" x="315" y="-14.3" font-family="Times,serif" font-size="14.00" fill="#000000">10</text>
</g>
<!-- 1&#45;&gt;10 -->
<g id="edge10" class="edge">
<title>1&#45;&gt;10</title>
<path fill="none" stroke="#000000" d="M226.3082,-77.1278C243.3555,-65.763 268.4019,-49.0654 287.5344,-36.3104"/>
<polygon fill="#000000" stroke="#000000" points="289.4799,-39.2199 295.8589,-30.7607 285.5969,-33.3956 289.4799,-39.2199"/>
</g>
<!-- 11 -->
<g id="node12" class="node">
<title>11</title>
<ellipse fill="none" stroke="#000000" cx="387" cy="-18" rx="27" ry="18"/>
<text text-anchor="middle" x="387" y="-14.3" font-family="Times,serif" font-size="14.00" fill="#000000">11</text>
</g>
<!-- 2&#45;&gt;11 -->
<g id="edge11" class="edge">
<title>2&#45;&gt;11</title>
<path fill="none" stroke="#000000" d="M543.8366,-80.7347C512.3313,-68.1325 455.7927,-45.5171 419.8982,-31.1593"/>
<polygon fill="#000000" stroke="#000000" points="420.9442,-27.8081 410.3596,-27.3438 418.3444,-34.3075 420.9442,-27.8081"/>
</g>
<!-- 12 -->
<g id="node13" class="node">
<title>12</title>
<ellipse fill="none" stroke="#000000" cx="459" cy="-18" rx="27" ry="18"/>
<text text-anchor="middle" x="459" y="-14.3" font-family="Times,serif" font-size="14.00" fill="#000000">12</text>
</g>
<!-- 2&#45;&gt;12 -->
<g id="edge12" class="edge">
<title>2&#45;&gt;12</title>
<path fill="none" stroke="#000000" d="M547.6918,-77.1278C530.6445,-65.763 505.5981,-49.0654 486.4656,-36.3104"/>
<polygon fill="#000000" stroke="#000000" points="488.4031,-33.3956 478.1411,-30.7607 484.5201,-39.2199 488.4031,-33.3956"/>
</g>
<!-- 13 -->
<g id="node14" class="node">
<title>13</title>
<ellipse fill="none" stroke="#000000" cx="531" cy="-18" rx="27" ry="18"/>
<text text-anchor="middle" x="531" y="-14.3" font-family="Times,serif" font-size="14.00" fill="#000000">13</text>
</g>
<!-- 2&#45;&gt;13 -->
<g id="edge13" class="edge">
<title>2&#45;&gt;13</title>
<path fill="none" stroke="#000000" d="M558.2854,-72.5708C554.0403,-64.0807 548.8464,-53.6929 544.1337,-44.2674"/>
<polygon fill="#000000" stroke="#000000" points="547.237,-42.6477 539.6343,-35.2687 540.976,-45.7782 547.237,-42.6477"/>
</g>
<!-- 14 -->
<g id="node15" class="node">
<title>14</title>
<ellipse fill="none" stroke="#000000" cx="603" cy="-18" rx="27" ry="18"/>
<text text-anchor="middle" x="603" y="-14.3" font-family="Times,serif" font-size="14.00" fill="#000000">14</text>
</g>
<!-- 2&#45;&gt;14 -->
<g id="edge14" class="edge">
<title>2&#45;&gt;14</title>
<path fill="none" stroke="#000000" d="M575.7146,-72.5708C579.9597,-64.0807 585.1536,-53.6929 589.8663,-44.2674"/>
<polygon fill="#000000" stroke="#000000" points="593.024,-45.7782 594.3657,-35.2687 586.763,-42.6477 593.024,-45.7782"/>
</g>
<!-- 15 -->
<g id="node16" class="node">
<title>15</title>
<ellipse fill="none" stroke="#000000" cx="675" cy="-18" rx="27" ry="18"/>
<text text-anchor="middle" x="675" y="-14.3" font-family="Times,serif" font-size="14.00" fill="#000000">15</text>
</g>
<!-- 2&#45;&gt;15 -->
<g id="edge15" class="edge">
<title>2&#45;&gt;15</title>
<path fill="none" stroke="#000000" d="M586.3082,-77.1278C603.3555,-65.763 628.4019,-49.0654 647.5344,-36.3104"/>
<polygon fill="#000000" stroke="#000000" points="649.4799,-39.2199 655.8589,-30.7607 645.5969,-33.3956 649.4799,-39.2199"/>
</g>
<!-- 16 -->
<g id="node17" class="node">
<title>16</title>
<ellipse fill="none" stroke="#000000" cx="747" cy="-18" rx="27" ry="18"/>
<text text-anchor="middle" x="747" y="-14.3" font-family="Times,serif" font-size="14.00" fill="#000000">16</text>
</g>
<!-- 3&#45;&gt;16 -->
<g id="edge16" class="edge">
<title>3&#45;&gt;16</title>
<path fill="none" stroke="#000000" d="M869.1295,-79.0647C844.7778,-66.8889 805.238,-47.119 777.7715,-33.3858"/>
<polygon fill="#000000" stroke="#000000" points="779.114,-30.1439 768.6045,-28.8022 775.9835,-36.4049 779.114,-30.1439"/>
</g>
<!-- 17 -->
<g id="node18" class="node">
<title>17</title>
<ellipse fill="none" stroke="#000000" cx="819" cy="-18" rx="27" ry="18"/>
<text text-anchor="middle" x="819" y="-14.3" font-family="Times,serif" font-size="14.00" fill="#000000">17</text>
</g>
<!-- 3&#45;&gt;17 -->
<g id="edge17" class="edge">
<title>3&#45;&gt;17</title>
<path fill="none" stroke="#000000" d="M875.7307,-74.7307C865.803,-64.803 852.6847,-51.6847 841.5637,-40.5637"/>
<polygon fill="#000000" stroke="#000000" points="843.7933,-37.8436 834.2473,-33.2473 838.8436,-42.7933 843.7933,-37.8436"/>
</g>
<!-- 18 -->
<g id="node19" class="node">
<title>18</title>
<ellipse fill="none" stroke="#000000" cx="891" cy="-18" rx="27" ry="18"/>
<text text-anchor="middle" x="891" y="-14.3" font-family="Times,serif" font-size="14.00" fill="#000000">18</text>
</g>
<!-- 3&#45;&gt;18 -->
<g id="edge18" class="edge">
<title>3&#45;&gt;18</title>
<path fill="none" stroke="#000000" d="M891,-71.8314C891,-64.131 891,-54.9743 891,-46.4166"/>
<polygon fill="#000000" stroke="#000000" points="894.5001,-46.4132 891,-36.4133 887.5001,-46.4133 894.5001,-46.4132"/>
</g>
<!-- 19 -->
<g id="node20" class="node">
<title>19</title>
<ellipse fill="none" stroke="#000000" cx="963" cy="-18" rx="27" ry="18"/>
<text text-anchor="middle" x="963" y="-14.3" font-family="Times,serif" font-size="14.00" fill="#000000">19</text>
</g>
<!-- 3&#45;&gt;19 -->
<g id="edge19" class="edge">
<title>3&#45;&gt;19</title>
<path fill="none" stroke="#000000" d="M906.2693,-74.7307C916.197,-64.803 929.3153,-51.6847 940.4363,-40.5637"/>
<polygon fill="#000000" stroke="#000000" points="943.1564,-42.7933 947.7527,-33.2473 938.2067,-37.8436 943.1564,-42.7933"/>
</g>
<!-- 20 -->
<g id="node21" class="node">
<title>20</title>
<ellipse fill="none" stroke="#000000" cx="1035" cy="-18" rx="27" ry="18"/>
<text text-anchor="middle" x="1035" y="-14.3" font-family="Times,serif" font-size="14.00" fill="#000000">20</text>
</g>
<!-- 3&#45;&gt;20 -->
<g id="edge20" class="edge">
<title>3&#45;&gt;20</title>
<path fill="none" stroke="#000000" d="M912.8705,-79.0647C937.2222,-66.8889 976.762,-47.119 1004.2285,-33.3858"/>
<polygon fill="#000000" stroke="#000000" points="1006.0165,-36.4049 1013.3955,-28.8022 1002.886,-30.1439 1006.0165,-36.4049"/>
</g>
<!-- 21 -->
<g id="node22" class="node">
<title>21</title>
<ellipse fill="none" stroke="#000000" cx="1107" cy="-18" rx="27" ry="18"/>
<text text-anchor="middle" x="1107" y="-14.3" font-family="Times,serif" font-size="14.00" fill="#000000">21</text>
</g>
<!-- 4&#45;&gt;21 -->
<g id="edge21" class="edge">
<title>4&#45;&gt;21</title>
<path fill="none" stroke="#000000" d="M1195.6918,-77.1278C1178.6445,-65.763 1153.5981,-49.0654 1134.4656,-36.3104"/>
<polygon fill="#000000" stroke="#000000" points="1136.4031,-33.3956 1126.1411,-30.7607 1132.5201,-39.2199 1136.4031,-33.3956"/>
</g>
<!-- 22 -->
<g id="node23" class="node">
<title>22</title>
<ellipse fill="none" stroke="#000000" cx="1179" cy="-18" rx="27" ry="18"/>
<text text-anchor="middle" x="1179" y="-14.3" font-family="Times,serif" font-size="14.00" fill="#000000">22</text>
</g>
<!-- 4&#45;&gt;22 -->
<g id="edge22" class="edge">
<title>4&#45;&gt;22</title>
<path fill="none" stroke="#000000" d="M1206.2854,-72.5708C1202.0403,-64.0807 1196.8464,-53.6929 1192.1337,-44.2674"/>
<polygon fill="#000000" stroke="#000000" points="1195.237,-42.6477 1187.6343,-35.2687 1188.976,-45.7782 1195.237,-42.6477"/>
</g>
<!-- 23 -->
<g id="node24" class="node">
<title>23</title>
<ellipse fill="none" stroke="#000000" cx="1251" cy="-18" rx="27" ry="18"/>
<text text-anchor="middle" x="1251" y="-14.3" font-family="Times,serif" font-size="14.00" fill="#000000">23</text>
</g>
<!-- 4&#45;&gt;23 -->
<g id="edge23" class="edge">
<title>4&#45;&gt;23</title>
<path fill="none" stroke="#000000" d="M1223.7146,-72.5708C1227.9597,-64.0807 1233.1536,-53.6929 1237.8663,-44.2674"/>
<polygon fill="#000000" stroke="#000000" points="1241.024,-45.7782 1242.3657,-35.2687 1234.763,-42.6477 1241.024,-45.7782"/>
</g>
<!-- 24 -->
<g id="node25" class="node">
<title>24</title>
<ellipse fill="none" stroke="#000000" cx="1323" cy="-18" rx="27" ry="18"/>
<text text-anchor="middle" x="1323" y="-14.3" font-family="Times,serif" font-size="14.00" fill="#000000">24</text>
</g>
<!-- 4&#45;&gt;24 -->
<g id="edge24" class="edge">
<title>4&#45;&gt;24</title>
<path fill="none" stroke="#000000" d="M1234.3082,-77.1278C1251.3555,-65.763 1276.4019,-49.0654 1295.5344,-36.3104"/>
<polygon fill="#000000" stroke="#000000" points="1297.4799,-39.2199 1303.8589,-30.7607 1293.5969,-33.3956 1297.4799,-39.2199"/>
</g>
<!-- 25 -->
<g id="node26" class="node">
<title>25</title>
<ellipse fill="none" stroke="#000000" cx="1395" cy="-18" rx="27" ry="18"/>
<text text-anchor="middle" x="1395" y="-14.3" font-family="Times,serif" font-size="14.00" fill="#000000">25</text>
</g>
<!-- 4&#45;&gt;25 -->
<g id="edge25" class="edge">
<title>4&#45;&gt;25</title>
<path fill="none" stroke="#000000" d="M1238.1634,-80.7347C1269.6687,-68.1325 1326.2073,-45.5171 1362.1018,-31.1593"/>
<polygon fill="#000000" stroke="#000000" points="1363.6556,-34.3075 1371.6404,-27.3438 1361.0558,-27.8081 1363.6556,-34.3075"/>
</g>
<!-- 26 -->
<g id="node27" class="node">
<title>26</title>
<ellipse fill="none" stroke="#000000" cx="1467" cy="-18" rx="27" ry="18"/>
<text text-anchor="middle" x="1467" y="-14.3" font-family="Times,serif" font-size="14.00" fill="#000000">26</text>
</g>
<!-- 5&#45;&gt;26 -->
<g id="edge26" class="edge">
<title>5&#45;&gt;26</title>
<path fill="none" stroke="#000000" d="M1555.6918,-77.1278C1538.6445,-65.763 1513.5981,-49.0654 1494.4656,-36.3104"/>
<polygon fill="#000000" stroke="#000000" points="1496.4031,-33.3956 1486.1411,-30.7607 1492.5201,-39.2199 1496.4031,-33.3956"/>
</g>
<!-- 27 -->
<g id="node28" class="node">
<title>27</title>
<ellipse fill="none" stroke="#000000" cx="1539" cy="-18" rx="27" ry="18"/>
<text text-anchor="middle" x="1539" y="-14.3" font-family="Times,serif" font-size="14.00" fill="#000000">27</text>
</g>
<!-- 5&#45;&gt;27 -->
<g id="edge27" class="edge">
<title>5&#45;&gt;27</title>
<path fill="none" stroke="#000000" d="M1566.2854,-72.5708C1562.0403,-64.0807 1556.8464,-53.6929 1552.1337,-44.2674"/>
<polygon fill="#000000" stroke="#000000" points="1555.237,-42.6477 1547.6343,-35.2687 1548.976,-45.7782 1555.237,-42.6477"/>
</g>
<!-- 28 -->
<g id="node29" class="node">
<title>28</title>
<ellipse fill="none" stroke="#000000" cx="1611" cy="-18" rx="27" ry="18"/>
<text text-anchor="middle" x="1611" y="-14.3" font-family="Times,serif" font-size="14.00" fill="#000000">28</text>
</g>
<!-- 5&#45;&gt;28 -->
<g id="edge28" class="edge">
<title>5&#45;&gt;28</title>
<path fill="none" stroke="#000000" d="M1583.7146,-72.5708C1587.9597,-64.0807 1593.1536,-53.6929 1597.8663,-44.2674"/>
<polygon fill="#000000" stroke="#000000" points="1601.024,-45.7782 1602.3657,-35.2687 1594.763,-42.6477 1601.024,-45.7782"/>
</g>
<!-- 29 -->
<g id="node30" class="node">
<title>29</title>
<ellipse fill="none" stroke="#000000" cx="1683" cy="-18" rx="27" ry="18"/>
<text text-anchor="middle" x="1683" y="-14.3" font-family="Times,serif" font-size="14.00" fill="#000000">29</text>
</g>
<!-- 5&#45;&gt;29 -->
<g id="edge29" class="edge">
<title>5&#45;&gt;29</title>
<path fill="none" stroke="#000000" d="M1594.3082,-77.1278C1611.3555,-65.763 1636.4019,-49.0654 1655.5344,-36.3104"/>
<polygon fill="#000000" stroke="#000000" points="1657.4799,-39.2199 1663.8589,-30.7607 1653.5969,-33.3956 1657.4799,-39.2199"/>
</g>
<!-- 30 -->
<g id="node31" class="node">
<title>30</title>
<ellipse fill="none" stroke="#000000" cx="1755" cy="-18" rx="27" ry="18"/>
<text text-anchor="middle" x="1755" y="-14.3" font-family="Times,serif" font-size="14.00" fill="#000000">30</text>
</g>
<!-- 5&#45;&gt;30 -->
<g id="edge30" class="edge">
<title>5&#45;&gt;30</title>
<path fill="none" stroke="#000000" d="M1598.1634,-80.7347C1629.6687,-68.1325 1686.2073,-45.5171 1722.1018,-31.1593"/>
<polygon fill="#000000" stroke="#000000" points="1723.6556,-34.3075 1731.6404,-27.3438 1721.0558,-27.8081 1723.6556,-34.3075"/>
</g>
</g>
</svg>
