<?xml version="1.0" encoding="UTF-8" standalone="no"?>
<!DOCTYPE svg PUBLIC "-//W3C//DTD SVG 1.1//EN"
 "http://www.w3.org/Graphics/SVG/1.1/DTD/svg11.dtd">
<!-- Generated by graphviz version 2.40.1 (20161225.0304)
 -->
<!-- Title: G Pages: 1 -->
<svg width="638pt" height="188pt"
 viewBox="0.00 0.00 638.00 188.00" xmlns="http://www.w3.org/2000/svg" xmlns:xlink="http://www.w3.org/1999/xlink">
<g id="graph0" class="graph" transform="scale(1 1) rotate(0) translate(4 184)">
<title>G</title>
<polygon fill="#ffffff" stroke="transparent" points="-4,4 -4,-184 634,-184 634,4 -4,4"/>
<!-- 0 -->
<g id="node1" class="node">
<title>0</title>
<ellipse fill="none" stroke="#000000" cx="315" cy="-162" rx="27" ry="18"/>
<text text-anchor="middle" x="315" y="-158.3" font-family="Times,serif" font-size="14.00" fill="#000000">0</text>
</g>
<!-- 1 -->
<g id="node2" class="node">
<title>1</title>
<ellipse fill="none" stroke="#000000" cx="135" cy="-90" rx="27" ry="18"/>
<text text-anchor="middle" x="135" y="-86.3" font-family="Times,serif" font-size="14.00" fill="#000000">1</text>
</g>
<!-- 0&#45;&gt;1 -->
<g id="edge1" class="edge">
<title>0&#45;&gt;1</title>
<path fill="none" stroke="#000000" d="M291.8366,-152.7347C260.3313,-140.1325 203.7927,-117.5171 167.8982,-103.1593"/>
<polygon fill="#000000" stroke="#000000" points="168.9442,-99.8081 158.3596,-99.3438 166.3444,-106.3075 168.9442,-99.8081"/>
</g>
<!-- 2 -->
<g id="node3" class="node">
<title>2</title>
<ellipse fill="none" stroke="#000000" cx="315" cy="-90" rx="27" ry="18"/>
<text text-anchor="middle" x="315" y="-86.3" font-family="Times,serif" font-size="14.00" fill="#000000">2</text>
</g>
<!-- 0&#45;&gt;2 -->
<g id="edge2" class="edge">
<title>0&#45;&gt;2</title>
<path fill="none" stroke="#000000" d="M315,-143.8314C315,-136.131 315,-126.9743 315,-118.4166"/>
<polygon fill="#000000" stroke="#000000" points="318.5001,-118.4132 315,-108.4133 311.5001,-118.4133 318.5001,-118.4132"/>
</g>
<!-- 3 -->
<g id="node4" class="node">
<title>3</title>
<ellipse fill="none" stroke="#000000" cx="495" cy="-90" rx="27" ry="18"/>
<text text-anchor="middle" x="495" y="-86.3" font-family="Times,serif" font-size="14.00" fill="#000000">3</text>
</g>
<!-- 0&#45;&gt;3 -->
<g id="edge3" class="edge">
<title>0&#45;&gt;3</title>
<path fill="none" stroke="#000000" d="M338.1634,-152.7347C369.6687,-140.1325 426.2073,-117.5171 462.1018,-103.1593"/>
<polygon fill="#000000" stroke="#000000" points="463.6556,-106.3075 471.6404,-99.3438 461.0558,-99.8081 463.6556,-106.3075"/>
</g>
<!-- 4 -->
<g id="node5" class="node">
<title>4</title>
<ellipse fill="none" stroke="#000000" cx="27" cy="-18" rx="27" ry="18"/>
<text text-anchor="middle" x="27" y="-14.3" font-family="Times,serif" font-size="14.00" fill="#000000">4</text>
</g>
<!-- 1&#45;&gt;4 -->
<g id="edge4" class="edge">
<title>1&#45;&gt;4</title>
<path fill="none" stroke="#000000" d="M115.6918,-77.1278C98.6445,-65.763 73.5981,-49.0654 54.4656,-36.3104"/>
<polygon fill="#000000" stroke="#000000" points="56.4031,-33.3956 46.1411,-30.7607 52.5201,-39.2199 56.4031,-33.3956"/>
</g>
<!-- 5 -->
<g id="node6" class="node">
<title>5</title>
<ellipse fill="none" stroke="#000000" cx="99" cy="-18" rx="27" ry="18"/>
<text text-anchor="middle" x="99" y="-14.3" font-family="Times,serif" font-size="14.00" fill="#000000">5</text>
</g>
<!-- 1&#45;&gt;5 -->
<g id="edge5" class="edge">
<title>1&#45;&gt;5</title>
<path fill="none" stroke="#000000" d="M126.2854,-72.5708C122.0403,-64.0807 116.8464,-53.6929 112.1337,-44.2674"/>
<polygon fill="#000000" stroke="#000000" points="115.237,-42.6477 107.6343,-35.2687 108.976,-45.7782 115.237,-42.6477"/>
</g>
<!-- 6 -->
<g id="node7" class="node">
<title>6</title>
<ellipse fill="none" stroke="#000000" cx="171" cy="-18" rx="27" ry="18"/>
<text text-anchor="middle" x="171" y="-14.3" font-family="Times,serif" font-size="14.00" fill="#000000">6</text>
</g>
<!-- 1&#45;&gt;6 -->
<g id="edge6" class="edge">
<title>1&#45;&gt;6</title>
<path fill="none" stroke="#000000" d="M143.7146,-72.5708C147.9597,-64.0807 153.1536,-53.6929 157.8663,-44.2674"/>
<polygon fill="#000000" stroke="#000000" points="161.024,-45.7782 162.3657,-35.2687 154.763,-42.6477 161.024,-45.7782"/>
</g>
<!-- 7 -->
<g id="node8" class="node">
<title>7</title>
<ellipse fill="none" stroke="#000000" cx="243" cy="-18" rx="27" ry="18"/>
<text text-anchor="middle" x="243" y="-14.3" font-family="Times,serif" font-size="14.00" fill="#000000">7</text>
</g>
<!-- 2&#45;&gt;7 -->
<g id="edge7" class="edge">
<title>2&#45;&gt;7</title>
<path fill="none" stroke="#000000" d="M299.7307,-74.7307C289.803,-64.803 276.6847,-51.6847 265.5637,-40.5637"/>
<polygon fill="#000000" stroke="#000000" points="267.7933,-37.8436 258.2473,-33.2473 262.8436,-42.7933 267.7933,-37.8436"/>
</g>
<!-- 8 -->
<g id="node9" class="node">
<title>8</title>
<ellipse fill="none" stroke="#000000" cx="315" cy="-18" rx="27" ry="18"/>
<text text-anchor="middle" x="315" y="-14.3" font-family="Times,serif" font-size="14.00" fill="#000000">8</text>
</g>
<!-- 2&#45;&gt;8 -->
<g id="edge8" class="edge">
<title>2&#45;&gt;8</title>
<path fill="none" stroke="#000000" d="M315,-71.8314C315,-64.131 315,-54.9743 315,-46.4166"/>
<polygon fill="#000000" stroke="#000000" points="318.5001,-46.4132 315,-36.4133 311.5001,-46.4133 318.5001,-46.4132"/>
</g>
<!-- 9 -->
<g id="node10" class="node">
<title>9</title>
<ellipse fill="none" stroke="#000000" cx="387" cy="-18" rx="27" ry="18"/>
<text text-anchor="middle" x="387" y="-14.3" font-family="Times,serif" font-size="14.00" fill="#000000">9</text>
</g>
<!-- 2&#45;&gt;9 -->
<g id="edge9" class="edge">
<title>2&#45;&gt;9</title>
<path fill="none" stroke="#000000" d="M330.2693,-74.7307C340.197,-64.803 353.3153,-51.6847 364.4363,-40.5637"/>
<polygon fill="#000000" stroke="#000000" points="367.1564,-42.7933 371.7527,-33.2473 362.2067,-37.8436 367.1564,-42.7933"/>
</g>
<!-- 10 -->
<g id="node11" class="node">
<title>10</title>
<ellipse fill="none" stroke="#000000" cx="459" cy="-18" rx="27" ry="18"/>
<text text-anchor="middle" x="459" y="-14.3" font-family="Times,serif" font-size="14.00" fill="#000000">10</text>
</g>
<!-- 3&#45;&gt;10 -->
<g id="edge10" class="edge">
<title>3&#45;&gt;10</title>
<path fill="none" stroke="#000000" d="M486.2854,-72.5708C482.0403,-64.0807 476.8464,-53.6929 472.1337,-44.2674"/>
<polygon fill="#000000" stroke="#000000" points="475.237,-42.6477 467.6343,-35.2687 468.976,-45.7782 475.237,-42.6477"/>
</g>
<!-- 11 -->
<g id="node12" class="node">
<title>11</title>
<ellipse fill="none" stroke="#000000" cx="531" cy="-18" rx="27" ry="18"/>
<text text-anchor="middle" x="531" y="-14.3" font-family="Times,serif" font-size="14.00" fill="#000000">11</text>
</g>
<!-- 3&#45;&gt;11 -->
<g id="edge11" class="edge">
<title>3&#45;&gt;11</title>
<path fill="none" stroke="#000000" d="M503.7146,-72.5708C507.9597,-64.0807 513.1536,-53.6929 517.8663,-44.2674"/>
<polygon fill="#000000" stroke="#000000" points="521.024,-45.7782 522.3657,-35.2687 514.763,-42.6477 521.024,-45.7782"/>
</g>
<!-- 12 -->
<g id="node13" class="node">
<title>12</title>
<ellipse fill="none" stroke="#000000" cx="603" cy="-18" rx="27" ry="18"/>
<text text-anchor="middle" x="603" y="-14.3" font-family="Times,serif" font-size="14.00" fill="#000000">12</text>
</g>
<!-- 3&#45;&gt;12 -->
<g id="edge12" class="edge">
<title>3&#45;&gt;12</title>
<path fill="none" stroke="#000000" d="M514.3082,-77.1278C531.3555,-65.763 556.4019,-49.0654 575.5344,-36.3104"/>
<polygon fill="#000000" stroke="#000000" points="577.4799,-39.2199 583.8589,-30.7607 573.5969,-33.3956 577.4799,-39.2199"/>
</g>
</g>
</svg>
