<svg xmlns="http://www.w3.org/2000/svg" style="fill:#000" viewBox="0 0 120 210">
    <g style="fill:none;stroke:#000;stroke-width:5">
        <path d="m 60,20 c 44,-26 49,-8 49,-8 0,0 9,27 -49,8 z"/>
        <path d="m 60,20 c -51,-14 -54,4 -54,4 0,0 0,27 54,-4 z"/>
        <path d="m 60,20 c -10,49 -1,59 -1,59 8,12 34,44 0,51 -46,9 -43,43 -43,43 0,0 1,32 56,27 55,-5 43,-42 43,-42 0,0 -10,-36 -56,-28"/>
    </g>
    <ellipse cx="40" cy="160" rx="6" ry="9"/>
    <ellipse cx="80" cy="160" rx="6" ry="9"/>
    <g style="fill:#fff">
        <ellipse cx="43" cy="156" rx="2" ry="4"/>
        <ellipse cx="83" cy="156" rx="2" ry="4"/>
    </g>
</svg>
