<?xml version="1.0" encoding="UTF-8" standalone="no"?>
<!DOCTYPE svg PUBLIC "-//W3C//DTD SVG 1.1//EN" "http://www.w3.org/Graphics/SVG/1.1/DTD/svg11.dtd">
<!-- Generated by graphviz version 2.38.0 (20140413.2041)
 -->
<!-- Title: %3 Pages: 1 -->
<svg width="738pt" height="548pt" viewBox="0.00 0.00 738.29 548.00" xmlns="http://www.w3.org/2000/svg" xmlns:xlink="http://www.w3.org/1999/xlink">
<g id="graph0" class="graph" transform="scale(1 1) rotate(0) translate(4 544)">
<title>%3</title>
<polygon fill="white" stroke="none" points="-4,4 -4,-544 734.294,-544 734.294,4 -4,4"/>
<!-- Module -->
<g id="node1" class="node"><title>Module</title>
<ellipse fill="none" stroke="black" cx="205" cy="-522" rx="38.1938" ry="18"/>
<text text-anchor="middle" x="205" y="-518.3" font-family="Times,serif" font-size="14.00">Module</text>
</g>
<!-- ImportDeclaration -->
<g id="node2" class="node"><title>ImportDeclaration</title>
<ellipse fill="none" stroke="black" cx="105" cy="-450" rx="76.0865" ry="18"/>
<text text-anchor="middle" x="105" y="-446.3" font-family="Times,serif" font-size="14.00">ImportDeclaration</text>
</g>
<!-- Module&#45;&gt;ImportDeclaration -->
<g id="edge1" class="edge"><title>Module-&gt;ImportDeclaration</title>
<path fill="none" stroke="black" d="M184.28,-506.496C170.475,-496.832 152.072,-483.95 136.472,-473.03"/>
<polygon fill="black" stroke="black" points="138.34,-470.066 128.14,-467.198 134.325,-475.8 138.34,-470.066"/>
</g>
<!-- FunctionDeclaration -->
<g id="node3" class="node"><title>FunctionDeclaration</title>
<ellipse fill="none" stroke="black" cx="305" cy="-450" rx="83.3857" ry="18"/>
<text text-anchor="middle" x="305" y="-446.3" font-family="Times,serif" font-size="14.00">FunctionDeclaration</text>
</g>
<!-- Module&#45;&gt;FunctionDeclaration -->
<g id="edge2" class="edge"><title>Module-&gt;FunctionDeclaration</title>
<path fill="none" stroke="black" d="M225.72,-506.496C239.429,-496.9 257.671,-484.13 273.201,-473.26"/>
<polygon fill="black" stroke="black" points="275.318,-476.05 281.503,-467.448 271.304,-470.315 275.318,-476.05"/>
</g>
<!-- sym1 -->
<g id="node4" class="node"><title>sym1</title>
<ellipse fill="none" stroke="black" cx="82" cy="-378" rx="38.1938" ry="18"/>
<text text-anchor="middle" x="82" y="-374.3" font-family="Times,serif" font-size="14.00">Symbol</text>
</g>
<!-- ImportDeclaration&#45;&gt;sym1 -->
<g id="edge3" class="edge"><title>ImportDeclaration-&gt;sym1</title>
<path fill="none" stroke="black" d="M99.3146,-431.697C96.7522,-423.898 93.6671,-414.509 90.8153,-405.829"/>
<polygon fill="black" stroke="black" points="94.0667,-404.512 87.62,-396.104 87.4165,-406.697 94.0667,-404.512"/>
</g>
<!-- ReturnType -->
<g id="node7" class="node"><title>ReturnType</title>
<ellipse fill="none" stroke="black" cx="191" cy="-378" rx="52.7911" ry="18"/>
<text text-anchor="middle" x="191" y="-374.3" font-family="Times,serif" font-size="14.00">ReturnType</text>
</g>
<!-- FunctionDeclaration&#45;&gt;ReturnType -->
<g id="edge6" class="edge"><title>FunctionDeclaration-&gt;ReturnType</title>
<path fill="none" stroke="black" d="M278.56,-432.765C262.428,-422.859 241.661,-410.108 224.4,-399.509"/>
<polygon fill="black" stroke="black" points="226.089,-396.439 215.736,-394.189 222.427,-402.404 226.089,-396.439"/>
</g>
<!-- sym2 -->
<g id="node8" class="node"><title>sym2</title>
<ellipse fill="none" stroke="black" cx="305" cy="-378" rx="43.5923" ry="18"/>
<text text-anchor="middle" x="305" y="-374.3" font-family="Times,serif" font-size="14.00">Identifier</text>
</g>
<!-- FunctionDeclaration&#45;&gt;sym2 -->
<g id="edge7" class="edge"><title>FunctionDeclaration-&gt;sym2</title>
<path fill="none" stroke="black" d="M305,-431.697C305,-423.983 305,-414.712 305,-406.112"/>
<polygon fill="black" stroke="black" points="308.5,-406.104 305,-396.104 301.5,-406.104 308.5,-406.104"/>
</g>
<!-- ParameterList -->
<g id="node9" class="node"><title>ParameterList</title>
<ellipse fill="none" stroke="black" cx="427" cy="-378" rx="60.3893" ry="18"/>
<text text-anchor="middle" x="427" y="-374.3" font-family="Times,serif" font-size="14.00">ParameterList</text>
</g>
<!-- FunctionDeclaration&#45;&gt;ParameterList -->
<g id="edge8" class="edge"><title>FunctionDeclaration-&gt;ParameterList</title>
<path fill="none" stroke="black" d="M332.989,-432.941C350.401,-422.95 372.947,-410.014 391.594,-399.315"/>
<polygon fill="black" stroke="black" points="393.464,-402.277 400.396,-394.264 389.981,-396.205 393.464,-402.277"/>
</g>
<!-- FunctionBody -->
<g id="node10" class="node"><title>FunctionBody</title>
<ellipse fill="none" stroke="black" cx="567" cy="-378" rx="61.1893" ry="18"/>
<text text-anchor="middle" x="567" y="-374.3" font-family="Times,serif" font-size="14.00">FunctionBody</text>
</g>
<!-- FunctionDeclaration&#45;&gt;FunctionBody -->
<g id="edge9" class="edge"><title>FunctionDeclaration-&gt;FunctionBody</title>
<path fill="none" stroke="black" d="M355.206,-435.586C400.472,-423.492 466.854,-405.757 513.197,-393.375"/>
<polygon fill="black" stroke="black" points="514.301,-396.703 523.059,-390.74 512.494,-389.94 514.301,-396.703"/>
</g>
<!-- &quot;std&quot; -->
<g id="node5" class="node"><title>"std"</title>
<polygon fill="none" stroke="black" points="54,-324 0,-324 0,-288 54,-288 54,-324"/>
<text text-anchor="middle" x="27" y="-302.3" font-family="Times,serif" font-size="14.00">"std"</text>
</g>
<!-- sym1&#45;&gt;&quot;std&quot; -->
<g id="edge4" class="edge"><title>sym1-&gt;"std"</title>
<path fill="none" stroke="black" d="M69.2437,-360.765C62.5677,-352.268 54.2459,-341.677 46.7579,-332.146"/>
<polygon fill="black" stroke="black" points="49.3849,-329.825 40.4545,-324.124 43.8806,-334.15 49.3849,-329.825"/>
</g>
<!-- &quot;stdio&quot; -->
<g id="node6" class="node"><title>"stdio"</title>
<polygon fill="none" stroke="black" points="127.5,-324 72.5,-324 72.5,-288 127.5,-288 127.5,-324"/>
<text text-anchor="middle" x="100" y="-302.3" font-family="Times,serif" font-size="14.00">"stdio"</text>
</g>
<!-- sym1&#45;&gt;&quot;stdio&quot; -->
<g id="edge5" class="edge"><title>sym1-&gt;"stdio"</title>
<path fill="none" stroke="black" d="M86.3573,-360.055C88.3615,-352.261 90.7887,-342.822 93.0369,-334.079"/>
<polygon fill="black" stroke="black" points="96.457,-334.832 95.5578,-324.275 89.6776,-333.089 96.457,-334.832"/>
</g>
<!-- &quot;void&quot; -->
<g id="node11" class="node"><title>"void"</title>
<polygon fill="none" stroke="black" points="218,-324 164,-324 164,-288 218,-288 218,-324"/>
<text text-anchor="middle" x="191" y="-302.3" font-family="Times,serif" font-size="14.00">"void"</text>
</g>
<!-- ReturnType&#45;&gt;&quot;void&quot; -->
<g id="edge10" class="edge"><title>ReturnType-&gt;"void"</title>
<path fill="none" stroke="black" d="M191,-359.697C191,-351.983 191,-342.712 191,-334.112"/>
<polygon fill="black" stroke="black" points="194.5,-334.104 191,-324.104 187.5,-334.104 194.5,-334.104"/>
</g>
<!-- &quot;main&quot; -->
<g id="node12" class="node"><title>"main"</title>
<polygon fill="none" stroke="black" points="333,-324 277,-324 277,-288 333,-288 333,-324"/>
<text text-anchor="middle" x="305" y="-302.3" font-family="Times,serif" font-size="14.00">"main"</text>
</g>
<!-- sym2&#45;&gt;&quot;main&quot; -->
<g id="edge11" class="edge"><title>sym2-&gt;"main"</title>
<path fill="none" stroke="black" d="M305,-359.697C305,-351.983 305,-342.712 305,-334.112"/>
<polygon fill="black" stroke="black" points="308.5,-334.104 305,-324.104 301.5,-334.104 308.5,-334.104"/>
</g>
<!-- Parameter -->
<g id="node13" class="node"><title>Parameter</title>
<ellipse fill="none" stroke="black" cx="427" cy="-306" rx="46.5926" ry="18"/>
<text text-anchor="middle" x="427" y="-302.3" font-family="Times,serif" font-size="14.00">Parameter</text>
</g>
<!-- ParameterList&#45;&gt;Parameter -->
<g id="edge12" class="edge"><title>ParameterList-&gt;Parameter</title>
<path fill="none" stroke="black" d="M427,-359.697C427,-351.983 427,-342.712 427,-334.112"/>
<polygon fill="black" stroke="black" points="430.5,-334.104 427,-324.104 423.5,-334.104 430.5,-334.104"/>
</g>
<!-- Statement -->
<g id="node20" class="node"><title>Statement</title>
<ellipse fill="none" stroke="black" cx="567" cy="-306" rx="46.2923" ry="18"/>
<text text-anchor="middle" x="567" y="-302.3" font-family="Times,serif" font-size="14.00">Statement</text>
</g>
<!-- FunctionBody&#45;&gt;Statement -->
<g id="edge19" class="edge"><title>FunctionBody-&gt;Statement</title>
<path fill="none" stroke="black" d="M567,-359.697C567,-351.983 567,-342.712 567,-334.112"/>
<polygon fill="black" stroke="black" points="570.5,-334.104 567,-324.104 563.5,-334.104 570.5,-334.104"/>
</g>
<!-- Type -->
<g id="node14" class="node"><title>Type</title>
<ellipse fill="none" stroke="black" cx="348" cy="-234" rx="28.6953" ry="18"/>
<text text-anchor="middle" x="348" y="-230.3" font-family="Times,serif" font-size="14.00">Type</text>
</g>
<!-- Parameter&#45;&gt;Type -->
<g id="edge13" class="edge"><title>Parameter-&gt;Type</title>
<path fill="none" stroke="black" d="M409.074,-289.116C397.945,-279.255 383.521,-266.474 371.485,-255.81"/>
<polygon fill="black" stroke="black" points="373.785,-253.171 363.979,-249.159 369.143,-258.41 373.785,-253.171"/>
</g>
<!-- Identifier -->
<g id="node15" class="node"><title>Identifier</title>
<ellipse fill="none" stroke="black" cx="438" cy="-234" rx="43.5923" ry="18"/>
<text text-anchor="middle" x="438" y="-230.3" font-family="Times,serif" font-size="14.00">Identifier</text>
</g>
<!-- Parameter&#45;&gt;Identifier -->
<g id="edge14" class="edge"><title>Parameter-&gt;Identifier</title>
<path fill="none" stroke="black" d="M429.719,-287.697C430.931,-279.983 432.388,-270.712 433.739,-262.112"/>
<polygon fill="black" stroke="black" points="437.217,-262.526 435.312,-252.104 430.302,-261.44 437.217,-262.526"/>
</g>
<!-- ArrayType -->
<g id="node16" class="node"><title>ArrayType</title>
<ellipse fill="none" stroke="black" cx="240" cy="-162" rx="49.2915" ry="18"/>
<text text-anchor="middle" x="240" y="-158.3" font-family="Times,serif" font-size="14.00">ArrayType</text>
</g>
<!-- Type&#45;&gt;ArrayType -->
<g id="edge15" class="edge"><title>Type-&gt;ArrayType</title>
<path fill="none" stroke="black" d="M328.692,-220.485C312.874,-210.233 290.168,-195.516 271.691,-183.54"/>
<polygon fill="black" stroke="black" points="273.57,-180.587 263.274,-178.085 269.762,-186.461 273.57,-180.587"/>
</g>
<!-- SubType -->
<g id="node17" class="node"><title>SubType</title>
<ellipse fill="none" stroke="black" cx="350" cy="-162" rx="42.4939" ry="18"/>
<text text-anchor="middle" x="350" y="-158.3" font-family="Times,serif" font-size="14.00">SubType</text>
</g>
<!-- Type&#45;&gt;SubType -->
<g id="edge16" class="edge"><title>Type-&gt;SubType</title>
<path fill="none" stroke="black" d="M348.494,-215.697C348.715,-207.983 348.98,-198.712 349.225,-190.112"/>
<polygon fill="black" stroke="black" points="352.724,-190.2 349.511,-180.104 345.727,-190 352.724,-190.2"/>
</g>
<!-- &quot;args&quot; -->
<g id="node19" class="node"><title>"args"</title>
<polygon fill="none" stroke="black" points="465,-180 411,-180 411,-144 465,-144 465,-180"/>
<text text-anchor="middle" x="438" y="-158.3" font-family="Times,serif" font-size="14.00">"args"</text>
</g>
<!-- Identifier&#45;&gt;&quot;args&quot; -->
<g id="edge18" class="edge"><title>Identifier-&gt;"args"</title>
<path fill="none" stroke="black" d="M438,-215.697C438,-207.983 438,-198.712 438,-190.112"/>
<polygon fill="black" stroke="black" points="441.5,-190.104 438,-180.104 434.5,-190.104 441.5,-190.104"/>
</g>
<!-- &quot;string&quot; -->
<g id="node18" class="node"><title>"string"</title>
<polygon fill="none" stroke="black" points="379.5,-108 320.5,-108 320.5,-72 379.5,-72 379.5,-108"/>
<text text-anchor="middle" x="350" y="-86.3" font-family="Times,serif" font-size="14.00">"string"</text>
</g>
<!-- SubType&#45;&gt;&quot;string&quot; -->
<g id="edge17" class="edge"><title>SubType-&gt;"string"</title>
<path fill="none" stroke="black" d="M350,-143.697C350,-135.983 350,-126.712 350,-118.112"/>
<polygon fill="black" stroke="black" points="353.5,-118.104 350,-108.104 346.5,-118.104 353.5,-118.104"/>
</g>
<!-- FunctionCall -->
<g id="node21" class="node"><title>FunctionCall</title>
<ellipse fill="none" stroke="black" cx="567" cy="-234" rx="56.59" ry="18"/>
<text text-anchor="middle" x="567" y="-230.3" font-family="Times,serif" font-size="14.00">FunctionCall</text>
</g>
<!-- Statement&#45;&gt;FunctionCall -->
<g id="edge20" class="edge"><title>Statement-&gt;FunctionCall</title>
<path fill="none" stroke="black" d="M567,-287.697C567,-279.983 567,-270.712 567,-262.112"/>
<polygon fill="black" stroke="black" points="570.5,-262.104 567,-252.104 563.5,-262.104 570.5,-262.104"/>
</g>
<!-- id2 -->
<g id="node22" class="node"><title>id2</title>
<ellipse fill="none" stroke="black" cx="542" cy="-162" rx="43.5923" ry="18"/>
<text text-anchor="middle" x="542" y="-158.3" font-family="Times,serif" font-size="14.00">Identifier</text>
</g>
<!-- FunctionCall&#45;&gt;id2 -->
<g id="edge21" class="edge"><title>FunctionCall-&gt;id2</title>
<path fill="none" stroke="black" d="M560.948,-216.055C558.134,-208.176 554.72,-198.617 551.569,-189.794"/>
<polygon fill="black" stroke="black" points="554.829,-188.516 548.17,-180.275 548.237,-190.87 554.829,-188.516"/>
</g>
<!-- ArgumentList -->
<g id="node23" class="node"><title>ArgumentList</title>
<ellipse fill="none" stroke="black" cx="664" cy="-162" rx="60.3893" ry="18"/>
<text text-anchor="middle" x="664" y="-158.3" font-family="Times,serif" font-size="14.00">ArgumentList</text>
</g>
<!-- FunctionCall&#45;&gt;ArgumentList -->
<g id="edge22" class="edge"><title>FunctionCall-&gt;ArgumentList</title>
<path fill="none" stroke="black" d="M589.011,-217.116C602.281,-207.539 619.368,-195.209 633.879,-184.737"/>
<polygon fill="black" stroke="black" points="636.015,-187.511 642.076,-178.821 631.919,-181.835 636.015,-187.511"/>
</g>
<!-- &quot;writeln&quot; -->
<g id="node24" class="node"><title>"writeln"</title>
<polygon fill="none" stroke="black" points="575.5,-108 508.5,-108 508.5,-72 575.5,-72 575.5,-108"/>
<text text-anchor="middle" x="542" y="-86.3" font-family="Times,serif" font-size="14.00">"writeln"</text>
</g>
<!-- id2&#45;&gt;&quot;writeln&quot; -->
<g id="edge23" class="edge"><title>id2-&gt;"writeln"</title>
<path fill="none" stroke="black" d="M542,-143.697C542,-135.983 542,-126.712 542,-118.112"/>
<polygon fill="black" stroke="black" points="545.5,-118.104 542,-108.104 538.5,-118.104 545.5,-118.104"/>
</g>
<!-- Argument -->
<g id="node25" class="node"><title>Argument</title>
<ellipse fill="none" stroke="black" cx="664" cy="-90" rx="46.5926" ry="18"/>
<text text-anchor="middle" x="664" y="-86.3" font-family="Times,serif" font-size="14.00">Argument</text>
</g>
<!-- ArgumentList&#45;&gt;Argument -->
<g id="edge24" class="edge"><title>ArgumentList-&gt;Argument</title>
<path fill="none" stroke="black" d="M664,-143.697C664,-135.983 664,-126.712 664,-118.112"/>
<polygon fill="black" stroke="black" points="667.5,-118.104 664,-108.104 660.5,-118.104 667.5,-118.104"/>
</g>
<!-- &quot;Hello, world!&quot; -->
<g id="node26" class="node"><title>"Hello, world!"</title>
<ellipse fill="none" stroke="black" cx="664" cy="-18" rx="66.0889" ry="18"/>
<text text-anchor="middle" x="664" y="-14.3" font-family="Times,serif" font-size="14.00">"Hello, world!"</text>
</g>
<!-- Argument&#45;&gt;&quot;Hello, world!&quot; -->
<g id="edge25" class="edge"><title>Argument-&gt;"Hello, world!"</title>
<path fill="none" stroke="black" d="M664,-71.6966C664,-63.9827 664,-54.7125 664,-46.1124"/>
<polygon fill="black" stroke="black" points="667.5,-46.1043 664,-36.1043 660.5,-46.1044 667.5,-46.1043"/>
</g>
</g>
</svg>