<?xml version="1.0" encoding="UTF-8" standalone="no"?>
<!DOCTYPE svg PUBLIC "-//W3C//DTD SVG 1.1//EN"
 "http://www.w3.org/Graphics/SVG/1.1/DTD/svg11.dtd">
<!-- Generated by graphviz version 2.40.1 (20161225.0304)
 -->
<!-- Title: G Pages: 1 -->
<svg width="1064pt" height="364pt"
 viewBox="0.00 0.00 1064.00 363.50" xmlns="http://www.w3.org/2000/svg" xmlns:xlink="http://www.w3.org/1999/xlink">
<g id="graph0" class="graph" transform="scale(1 1) rotate(0) translate(4 359.5)">
<title>G</title>
<polygon fill="#ffffff" stroke="transparent" points="-4,4 -4,-359.5 1060,-359.5 1060,4 -4,4"/>
<!-- n0 -->
<g id="node1" class="node">
<title>n0</title>
<polygon fill="none" stroke="#000000" points="0,-165 0,-280 112,-280 112,-165 0,-165"/>
<text text-anchor="middle" x="56" y="-264.8" font-family="Times,serif" font-size="14.00" fill="#000000">FUNCTION</text>
<polyline fill="none" stroke="#000000" points="0,-257 112,-257 "/>
<text text-anchor="middle" x="56" y="-241.8" font-family="Times,serif" font-size="14.00" fill="#000000">name = main</text>
<polyline fill="none" stroke="#000000" points="0,-234 112,-234 "/>
<text text-anchor="middle" x="56" y="-218.8" font-family="Times,serif" font-size="14.00" fill="#000000">type = int</text>
<polyline fill="none" stroke="#000000" points="0,-211 112,-211 "/>
<text text-anchor="middle" x="56" y="-195.8" font-family="Times,serif" font-size="14.00" fill="#000000">args</text>
<polyline fill="none" stroke="#000000" points="0,-188 112,-188 "/>
<text text-anchor="middle" x="56" y="-172.8" font-family="Times,serif" font-size="14.00" fill="#000000">body</text>
</g>
<!-- n1 -->
<g id="node2" class="node">
<title>n1</title>
<polygon fill="none" stroke="#000000" points="228.5,-221.5 228.5,-267.5 282.5,-267.5 282.5,-221.5 228.5,-221.5"/>
<text text-anchor="middle" x="255.5" y="-252.3" font-family="Times,serif" font-size="14.00" fill="#000000">0</text>
<polyline fill="none" stroke="#000000" points="228.5,-244.5 282.5,-244.5 "/>
<text text-anchor="middle" x="255.5" y="-229.3" font-family="Times,serif" font-size="14.00" fill="#000000">1</text>
</g>
<!-- n0&#45;&gt;n1 -->
<g id="edge3" class="edge">
<title>n0:args&#45;&gt;n1</title>
<path fill="none" stroke="#000000" d="M112,-199.5C149.7669,-199.5 190.6688,-213.8668 219.1055,-226.365"/>
<polygon fill="#000000" stroke="#000000" points="217.6957,-229.5687 228.2488,-230.5084 220.5851,-223.1928 217.6957,-229.5687"/>
</g>
<!-- n4 -->
<g id="node5" class="node">
<title>n4</title>
<polygon fill="none" stroke="#000000" points="148,-98 148,-167 363,-167 363,-98 148,-98"/>
<text text-anchor="middle" x="255.5" y="-151.8" font-family="Times,serif" font-size="14.00" fill="#000000">COMPOUND_STATEMENT</text>
<polyline fill="none" stroke="#000000" points="148,-144 363,-144 "/>
<text text-anchor="middle" x="255.5" y="-128.8" font-family="Times,serif" font-size="14.00" fill="#000000">0</text>
<polyline fill="none" stroke="#000000" points="148,-121 363,-121 "/>
<text text-anchor="middle" x="255.5" y="-105.8" font-family="Times,serif" font-size="14.00" fill="#000000">1</text>
</g>
<!-- n0&#45;&gt;n4 -->
<g id="edge14" class="edge">
<title>n0:body&#45;&gt;n4</title>
<path fill="none" stroke="#000000" d="M112,-176.5C128.5082,-176.5 145.6338,-173.8054 162.0603,-169.75"/>
<polygon fill="#000000" stroke="#000000" points="163.4195,-173.0104 172.1861,-167.0609 161.6227,-166.2449 163.4195,-173.0104"/>
</g>
<!-- n2 -->
<g id="node3" class="node">
<title>n2</title>
<polygon fill="none" stroke="#000000" points="399,-286 399,-355 598,-355 598,-286 399,-286"/>
<text text-anchor="middle" x="498.5" y="-339.8" font-family="Times,serif" font-size="14.00" fill="#000000">VARIABLE_DEFINITION</text>
<polyline fill="none" stroke="#000000" points="399,-332 598,-332 "/>
<text text-anchor="middle" x="498.5" y="-316.8" font-family="Times,serif" font-size="14.00" fill="#000000">name = argc</text>
<polyline fill="none" stroke="#000000" points="399,-309 598,-309 "/>
<text text-anchor="middle" x="498.5" y="-293.8" font-family="Times,serif" font-size="14.00" fill="#000000">type = int</text>
</g>
<!-- n1&#45;&gt;n2 -->
<g id="edge1" class="edge">
<title>n1:0&#45;&gt;n2</title>
<path fill="none" stroke="#000000" d="M282.5,-256.5C326.2178,-256.5 372.9381,-268.7013 411.7043,-282.4491"/>
<polygon fill="#000000" stroke="#000000" points="410.788,-285.8401 421.3821,-285.9711 413.182,-279.2622 410.788,-285.8401"/>
</g>
<!-- n3 -->
<g id="node4" class="node">
<title>n3</title>
<polygon fill="none" stroke="#000000" points="399,-198 399,-267 598,-267 598,-198 399,-198"/>
<text text-anchor="middle" x="498.5" y="-251.8" font-family="Times,serif" font-size="14.00" fill="#000000">VARIABLE_DEFINITION</text>
<polyline fill="none" stroke="#000000" points="399,-244 598,-244 "/>
<text text-anchor="middle" x="498.5" y="-228.8" font-family="Times,serif" font-size="14.00" fill="#000000">name = argv</text>
<polyline fill="none" stroke="#000000" points="399,-221 598,-221 "/>
<text text-anchor="middle" x="498.5" y="-205.8" font-family="Times,serif" font-size="14.00" fill="#000000">type = **char</text>
</g>
<!-- n1&#45;&gt;n3 -->
<g id="edge2" class="edge">
<title>n1:1&#45;&gt;n3</title>
<path fill="none" stroke="#000000" d="M282.5,-232.5C316.9092,-232.5 354.4017,-232.5 388.3466,-232.5"/>
<polygon fill="#000000" stroke="#000000" points="388.76,-236.0001 398.76,-232.5 388.7599,-229.0001 388.76,-236.0001"/>
</g>
<!-- n5 -->
<g id="node13" class="node">
<title>n5</title>
<polygon fill="none" stroke="#000000" points="399,-86.5 399,-178.5 598,-178.5 598,-86.5 399,-86.5"/>
<text text-anchor="middle" x="498.5" y="-163.3" font-family="Times,serif" font-size="14.00" fill="#000000">VARIABLE_DEFINITION</text>
<polyline fill="none" stroke="#000000" points="399,-155.5 598,-155.5 "/>
<text text-anchor="middle" x="498.5" y="-140.3" font-family="Times,serif" font-size="14.00" fill="#000000">name = a</text>
<polyline fill="none" stroke="#000000" points="399,-132.5 598,-132.5 "/>
<text text-anchor="middle" x="498.5" y="-117.3" font-family="Times,serif" font-size="14.00" fill="#000000">type = int</text>
<polyline fill="none" stroke="#000000" points="399,-109.5 598,-109.5 "/>
<text text-anchor="middle" x="498.5" y="-94.3" font-family="Times,serif" font-size="14.00" fill="#000000">init</text>
</g>
<!-- n4&#45;&gt;n5 -->
<g id="edge11" class="edge">
<title>n4:0&#45;&gt;n5</title>
<path fill="none" stroke="#000000" d="M363,-132.5C371.3695,-132.5 380.0298,-132.5 388.7384,-132.5"/>
<polygon fill="#000000" stroke="#000000" points="388.9693,-136.0001 398.9692,-132.5 388.9692,-129.0001 388.9693,-136.0001"/>
</g>
<!-- n13 -->
<g id="node15" class="node">
<title>n13</title>
<polygon fill="none" stroke="#000000" points="457,-18.5 457,-64.5 540,-64.5 540,-18.5 457,-18.5"/>
<text text-anchor="middle" x="498.5" y="-49.3" font-family="Times,serif" font-size="14.00" fill="#000000">RETURN</text>
<polyline fill="none" stroke="#000000" points="457,-41.5 540,-41.5 "/>
<text text-anchor="middle" x="498.5" y="-26.3" font-family="Times,serif" font-size="14.00" fill="#000000">expr</text>
</g>
<!-- n4&#45;&gt;n13 -->
<g id="edge13" class="edge">
<title>n4:1&#45;&gt;n13</title>
<path fill="none" stroke="#000000" d="M363,-109.5C384.7051,-109.5 380.3844,-87.6611 399,-76.5 413.6968,-67.6884 430.9442,-60.6422 446.9137,-55.248"/>
<polygon fill="#000000" stroke="#000000" points="448.2168,-58.5052 456.6576,-52.1018 446.0659,-51.8439 448.2168,-58.5052"/>
</g>
<!-- n9 -->
<g id="node6" class="node">
<title>n9</title>
<polygon fill="none" stroke="#000000" points="988,-152.5 988,-198.5 1056,-198.5 1056,-152.5 988,-152.5"/>
<text text-anchor="middle" x="1022" y="-183.3" font-family="Times,serif" font-size="14.00" fill="#000000">NUM</text>
<polyline fill="none" stroke="#000000" points="988,-175.5 1056,-175.5 "/>
<text text-anchor="middle" x="1022" y="-160.3" font-family="Times,serif" font-size="14.00" fill="#000000">val = 1</text>
</g>
<!-- n10 -->
<g id="node7" class="node">
<title>n10</title>
<polygon fill="none" stroke="#000000" points="988,-87.5 988,-133.5 1056,-133.5 1056,-87.5 988,-87.5"/>
<text text-anchor="middle" x="1022" y="-118.3" font-family="Times,serif" font-size="14.00" fill="#000000">NUM</text>
<polyline fill="none" stroke="#000000" points="988,-110.5 1056,-110.5 "/>
<text text-anchor="middle" x="1022" y="-95.3" font-family="Times,serif" font-size="14.00" fill="#000000">val = 2</text>
</g>
<!-- n8 -->
<g id="node8" class="node">
<title>n8</title>
<polygon fill="none" stroke="#000000" points="891,-120 891,-189 945,-189 945,-120 891,-120"/>
<text text-anchor="middle" x="918" y="-173.8" font-family="Times,serif" font-size="14.00" fill="#000000">+</text>
<polyline fill="none" stroke="#000000" points="891,-166 945,-166 "/>
<text text-anchor="middle" x="918" y="-150.8" font-family="Times,serif" font-size="14.00" fill="#000000">lhs</text>
<polyline fill="none" stroke="#000000" points="891,-143 945,-143 "/>
<text text-anchor="middle" x="918" y="-127.8" font-family="Times,serif" font-size="14.00" fill="#000000">rhs</text>
</g>
<!-- n8&#45;&gt;n9 -->
<g id="edge4" class="edge">
<title>n8:lhs&#45;&gt;n9</title>
<path fill="none" stroke="#000000" d="M945,-154.5C955.8155,-154.5 967.194,-156.4523 977.7866,-159.1663"/>
<polygon fill="#000000" stroke="#000000" points="977.0823,-162.6044 987.6577,-161.9629 978.9905,-155.8695 977.0823,-162.6044"/>
</g>
<!-- n8&#45;&gt;n10 -->
<g id="edge5" class="edge">
<title>n8:rhs&#45;&gt;n10</title>
<path fill="none" stroke="#000000" d="M945,-131.5C955.8155,-131.5 967.194,-129.5477 977.7866,-126.8337"/>
<polygon fill="#000000" stroke="#000000" points="978.9905,-130.1305 987.6577,-124.0371 977.0823,-123.3956 978.9905,-130.1305"/>
</g>
<!-- n11 -->
<g id="node9" class="node">
<title>n11</title>
<polygon fill="none" stroke="#000000" points="884,-54.5 884,-100.5 952,-100.5 952,-54.5 884,-54.5"/>
<text text-anchor="middle" x="918" y="-85.3" font-family="Times,serif" font-size="14.00" fill="#000000">NUM</text>
<polyline fill="none" stroke="#000000" points="884,-77.5 952,-77.5 "/>
<text text-anchor="middle" x="918" y="-62.3" font-family="Times,serif" font-size="14.00" fill="#000000">val = 3</text>
</g>
<!-- n7 -->
<g id="node10" class="node">
<title>n7</title>
<polygon fill="none" stroke="#000000" points="787,-93 787,-162 841,-162 841,-93 787,-93"/>
<text text-anchor="middle" x="814" y="-146.8" font-family="Times,serif" font-size="14.00" fill="#000000">+</text>
<polyline fill="none" stroke="#000000" points="787,-139 841,-139 "/>
<text text-anchor="middle" x="814" y="-123.8" font-family="Times,serif" font-size="14.00" fill="#000000">lhs</text>
<polyline fill="none" stroke="#000000" points="787,-116 841,-116 "/>
<text text-anchor="middle" x="814" y="-100.8" font-family="Times,serif" font-size="14.00" fill="#000000">rhs</text>
</g>
<!-- n7&#45;&gt;n8 -->
<g id="edge6" class="edge">
<title>n7:lhs&#45;&gt;n8</title>
<path fill="none" stroke="#000000" d="M841,-127.5C854.5253,-127.5 868.6723,-131.2556 881.0959,-135.9654"/>
<polygon fill="#000000" stroke="#000000" points="880.0656,-139.3261 890.6452,-139.8937 882.7287,-132.8524 880.0656,-139.3261"/>
</g>
<!-- n7&#45;&gt;n11 -->
<g id="edge7" class="edge">
<title>n7:rhs&#45;&gt;n11</title>
<path fill="none" stroke="#000000" d="M841,-104.5C852.1713,-104.5 863.7667,-101.9379 874.4649,-98.3923"/>
<polygon fill="#000000" stroke="#000000" points="875.8104,-101.627 883.9996,-94.9048 873.4058,-95.0529 875.8104,-101.627"/>
</g>
<!-- n12 -->
<g id="node11" class="node">
<title>n12</title>
<polygon fill="none" stroke="#000000" points="780,-27.5 780,-73.5 848,-73.5 848,-27.5 780,-27.5"/>
<text text-anchor="middle" x="814" y="-58.3" font-family="Times,serif" font-size="14.00" fill="#000000">NUM</text>
<polyline fill="none" stroke="#000000" points="780,-50.5 848,-50.5 "/>
<text text-anchor="middle" x="814" y="-35.3" font-family="Times,serif" font-size="14.00" fill="#000000">val = 7</text>
</g>
<!-- n6 -->
<g id="node12" class="node">
<title>n6</title>
<polygon fill="none" stroke="#000000" points="662,-66 662,-135 716,-135 716,-66 662,-66"/>
<text text-anchor="middle" x="689" y="-119.8" font-family="Times,serif" font-size="14.00" fill="#000000">*</text>
<polyline fill="none" stroke="#000000" points="662,-112 716,-112 "/>
<text text-anchor="middle" x="689" y="-96.8" font-family="Times,serif" font-size="14.00" fill="#000000">lhs</text>
<polyline fill="none" stroke="#000000" points="662,-89 716,-89 "/>
<text text-anchor="middle" x="689" y="-73.8" font-family="Times,serif" font-size="14.00" fill="#000000">rhs</text>
</g>
<!-- n6&#45;&gt;n7 -->
<g id="edge8" class="edge">
<title>n6:lhs&#45;&gt;n7</title>
<path fill="none" stroke="#000000" d="M716,-100.5C736.6976,-100.5 758.9993,-106.1668 777.0913,-112.3082"/>
<polygon fill="#000000" stroke="#000000" points="776.0779,-115.6628 786.6724,-115.736 778.4359,-109.0719 776.0779,-115.6628"/>
</g>
<!-- n6&#45;&gt;n12 -->
<g id="edge9" class="edge">
<title>n6:rhs&#45;&gt;n12</title>
<path fill="none" stroke="#000000" d="M716,-77.5C733.9759,-77.5 753.1619,-73.2255 769.7492,-68.078"/>
<polygon fill="#000000" stroke="#000000" points="771.3085,-71.2491 779.7072,-64.7906 769.114,-64.602 771.3085,-71.2491"/>
</g>
<!-- n5&#45;&gt;n6 -->
<g id="edge10" class="edge">
<title>n5:init&#45;&gt;n6</title>
<path fill="none" stroke="#000000" d="M598,-97.5C615.6349,-97.5 635.1817,-98.0697 651.6249,-98.7126"/>
<polygon fill="#000000" stroke="#000000" points="651.7944,-102.2226 661.931,-99.1404 652.0848,-95.2286 651.7944,-102.2226"/>
</g>
<!-- n14 -->
<g id="node14" class="node">
<title>n14</title>
<polygon fill="none" stroke="#000000" points="634,-.5 634,-46.5 744,-46.5 744,-.5 634,-.5"/>
<text text-anchor="middle" x="689" y="-31.3" font-family="Times,serif" font-size="14.00" fill="#000000">IDENTIFIER</text>
<polyline fill="none" stroke="#000000" points="634,-23.5 744,-23.5 "/>
<text text-anchor="middle" x="689" y="-8.3" font-family="Times,serif" font-size="14.00" fill="#000000">name = a</text>
</g>
<!-- n13&#45;&gt;n14 -->
<g id="edge12" class="edge">
<title>n13:expr&#45;&gt;n14</title>
<path fill="none" stroke="#000000" d="M540.5,-29.5C567.7204,-29.5 597.7246,-28.4811 623.5955,-27.283"/>
<polygon fill="#000000" stroke="#000000" points="623.8434,-30.7752 633.6635,-26.7984 623.5067,-23.7833 623.8434,-30.7752"/>
</g>
</g>
</svg>
