<?xml version="1.0" encoding="UTF-8" standalone="no"?>
<!DOCTYPE svg PUBLIC "-//W3C//DTD SVG 1.1//EN"
 "http://www.w3.org/Graphics/SVG/1.1/DTD/svg11.dtd">
<!-- Generated by graphviz version 2.40.1 (20161225.0304)
 -->
<!-- Title: G Pages: 1 -->
<svg width="1142pt" height="364pt"
 viewBox="0.00 0.00 1142.00 363.50" xmlns="http://www.w3.org/2000/svg" xmlns:xlink="http://www.w3.org/1999/xlink">
<g id="graph0" class="graph" transform="scale(1 1) rotate(0) translate(4 359.5)">
<title>G</title>
<polygon fill="#ffffff" stroke="transparent" points="-4,4 -4,-359.5 1138,-359.5 1138,4 -4,4"/>
<!-- n0 -->
<g id="node1" class="node">
<title>n0</title>
<polygon fill="none" stroke="#000000" points="0,-165 0,-280 112,-280 112,-165 0,-165"/>
<text text-anchor="middle" x="56" y="-264.8" font-family="Times,serif" font-size="14.00" fill="#000000">FUNCTION</text>
<polyline fill="none" stroke="#000000" points="0,-257 112,-257 "/>
<text text-anchor="middle" x="56" y="-241.8" font-family="Times,serif" font-size="14.00" fill="#000000">name = main</text>
<polyline fill="none" stroke="#000000" points="0,-234 112,-234 "/>
<text text-anchor="middle" x="56" y="-218.8" font-family="Times,serif" font-size="14.00" fill="#000000">type = int</text>
<polyline fill="none" stroke="#000000" points="0,-211 112,-211 "/>
<text text-anchor="middle" x="56" y="-195.8" font-family="Times,serif" font-size="14.00" fill="#000000">args</text>
<polyline fill="none" stroke="#000000" points="0,-188 112,-188 "/>
<text text-anchor="middle" x="56" y="-172.8" font-family="Times,serif" font-size="14.00" fill="#000000">body</text>
</g>
<!-- n1 -->
<g id="node2" class="node">
<title>n1</title>
<polygon fill="none" stroke="#000000" points="228.5,-221.5 228.5,-267.5 282.5,-267.5 282.5,-221.5 228.5,-221.5"/>
<text text-anchor="middle" x="255.5" y="-252.3" font-family="Times,serif" font-size="14.00" fill="#000000">0</text>
<polyline fill="none" stroke="#000000" points="228.5,-244.5 282.5,-244.5 "/>
<text text-anchor="middle" x="255.5" y="-229.3" font-family="Times,serif" font-size="14.00" fill="#000000">1</text>
</g>
<!-- n0&#45;&gt;n1 -->
<g id="edge3" class="edge">
<title>n0:args&#45;&gt;n1</title>
<path fill="none" stroke="#000000" d="M112,-199.5C149.7669,-199.5 190.6688,-213.8668 219.1055,-226.365"/>
<polygon fill="#000000" stroke="#000000" points="217.6957,-229.5687 228.2488,-230.5084 220.5851,-223.1928 217.6957,-229.5687"/>
</g>
<!-- n4 -->
<g id="node5" class="node">
<title>n4</title>
<polygon fill="none" stroke="#000000" points="148,-98 148,-167 363,-167 363,-98 148,-98"/>
<text text-anchor="middle" x="255.5" y="-151.8" font-family="Times,serif" font-size="14.00" fill="#000000">COMPOUND_STATEMENT</text>
<polyline fill="none" stroke="#000000" points="148,-144 363,-144 "/>
<text text-anchor="middle" x="255.5" y="-128.8" font-family="Times,serif" font-size="14.00" fill="#000000">0</text>
<polyline fill="none" stroke="#000000" points="148,-121 363,-121 "/>
<text text-anchor="middle" x="255.5" y="-105.8" font-family="Times,serif" font-size="14.00" fill="#000000">1</text>
</g>
<!-- n0&#45;&gt;n4 -->
<g id="edge14" class="edge">
<title>n0:body&#45;&gt;n4</title>
<path fill="none" stroke="#000000" d="M112,-176.5C128.5082,-176.5 145.6338,-173.8054 162.0603,-169.75"/>
<polygon fill="#000000" stroke="#000000" points="163.4195,-173.0104 172.1861,-167.0609 161.6227,-166.2449 163.4195,-173.0104"/>
</g>
<!-- n2 -->
<g id="node3" class="node">
<title>n2</title>
<polygon fill="none" stroke="#000000" points="399,-286 399,-355 598,-355 598,-286 399,-286"/>
<text text-anchor="middle" x="498.5" y="-339.8" font-family="Times,serif" font-size="14.00" fill="#000000">VARIABLE_DEFINITION</text>
<polyline fill="none" stroke="#000000" points="399,-332 598,-332 "/>
<text text-anchor="middle" x="498.5" y="-316.8" font-family="Times,serif" font-size="14.00" fill="#000000">name = argc</text>
<polyline fill="none" stroke="#000000" points="399,-309 598,-309 "/>
<text text-anchor="middle" x="498.5" y="-293.8" font-family="Times,serif" font-size="14.00" fill="#000000">type = int</text>
</g>
<!-- n1&#45;&gt;n2 -->
<g id="edge1" class="edge">
<title>n1:0&#45;&gt;n2</title>
<path fill="none" stroke="#000000" d="M282.5,-256.5C326.2178,-256.5 372.9381,-268.7013 411.7043,-282.4491"/>
<polygon fill="#000000" stroke="#000000" points="410.788,-285.8401 421.3821,-285.9711 413.182,-279.2622 410.788,-285.8401"/>
</g>
<!-- n3 -->
<g id="node4" class="node">
<title>n3</title>
<polygon fill="none" stroke="#000000" points="399,-198 399,-267 598,-267 598,-198 399,-198"/>
<text text-anchor="middle" x="498.5" y="-251.8" font-family="Times,serif" font-size="14.00" fill="#000000">VARIABLE_DEFINITION</text>
<polyline fill="none" stroke="#000000" points="399,-244 598,-244 "/>
<text text-anchor="middle" x="498.5" y="-228.8" font-family="Times,serif" font-size="14.00" fill="#000000">name = argv</text>
<polyline fill="none" stroke="#000000" points="399,-221 598,-221 "/>
<text text-anchor="middle" x="498.5" y="-205.8" font-family="Times,serif" font-size="14.00" fill="#000000">type = **char</text>
</g>
<!-- n1&#45;&gt;n3 -->
<g id="edge2" class="edge">
<title>n1:1&#45;&gt;n3</title>
<path fill="none" stroke="#000000" d="M282.5,-232.5C316.9092,-232.5 354.4017,-232.5 388.3466,-232.5"/>
<polygon fill="#000000" stroke="#000000" points="388.76,-236.0001 398.76,-232.5 388.7599,-229.0001 388.76,-236.0001"/>
</g>
<!-- n5 -->
<g id="node13" class="node">
<title>n5</title>
<polygon fill="none" stroke="#000000" points="399,-86.5 399,-178.5 598,-178.5 598,-86.5 399,-86.5"/>
<text text-anchor="middle" x="498.5" y="-163.3" font-family="Times,serif" font-size="14.00" fill="#000000">VARIABLE_DEFINITION</text>
<polyline fill="none" stroke="#000000" points="399,-155.5 598,-155.5 "/>
<text text-anchor="middle" x="498.5" y="-140.3" font-family="Times,serif" font-size="14.00" fill="#000000">name = a</text>
<polyline fill="none" stroke="#000000" points="399,-132.5 598,-132.5 "/>
<text text-anchor="middle" x="498.5" y="-117.3" font-family="Times,serif" font-size="14.00" fill="#000000">type = int</text>
<polyline fill="none" stroke="#000000" points="399,-109.5 598,-109.5 "/>
<text text-anchor="middle" x="498.5" y="-94.3" font-family="Times,serif" font-size="14.00" fill="#000000">init</text>
</g>
<!-- n4&#45;&gt;n5 -->
<g id="edge11" class="edge">
<title>n4:0&#45;&gt;n5</title>
<path fill="none" stroke="#000000" d="M363,-132.5C371.3695,-132.5 380.0298,-132.5 388.7384,-132.5"/>
<polygon fill="#000000" stroke="#000000" points="388.9693,-136.0001 398.9692,-132.5 388.9692,-129.0001 388.9693,-136.0001"/>
</g>
<!-- n13 -->
<g id="node15" class="node">
<title>n13</title>
<polygon fill="none" stroke="#000000" points="457,-18.5 457,-64.5 540,-64.5 540,-18.5 457,-18.5"/>
<text text-anchor="middle" x="498.5" y="-49.3" font-family="Times,serif" font-size="14.00" fill="#000000">RETURN</text>
<polyline fill="none" stroke="#000000" points="457,-41.5 540,-41.5 "/>
<text text-anchor="middle" x="498.5" y="-26.3" font-family="Times,serif" font-size="14.00" fill="#000000">expr</text>
</g>
<!-- n4&#45;&gt;n13 -->
<g id="edge13" class="edge">
<title>n4:1&#45;&gt;n13</title>
<path fill="none" stroke="#000000" d="M363,-109.5C384.7051,-109.5 380.3844,-87.6611 399,-76.5 413.6968,-67.6884 430.9442,-60.6422 446.9137,-55.248"/>
<polygon fill="#000000" stroke="#000000" points="448.2168,-58.5052 456.6576,-52.1018 446.0659,-51.8439 448.2168,-58.5052"/>
</g>
<!-- n9 -->
<g id="node6" class="node">
<title>n9</title>
<polygon fill="none" stroke="#000000" points="1066,-152.5 1066,-198.5 1134,-198.5 1134,-152.5 1066,-152.5"/>
<text text-anchor="middle" x="1100" y="-183.3" font-family="Times,serif" font-size="14.00" fill="#000000">NUM</text>
<polyline fill="none" stroke="#000000" points="1066,-175.5 1134,-175.5 "/>
<text text-anchor="middle" x="1100" y="-160.3" font-family="Times,serif" font-size="14.00" fill="#000000">val = 1</text>
</g>
<!-- n10 -->
<g id="node7" class="node">
<title>n10</title>
<polygon fill="none" stroke="#000000" points="1066,-87.5 1066,-133.5 1134,-133.5 1134,-87.5 1066,-87.5"/>
<text text-anchor="middle" x="1100" y="-118.3" font-family="Times,serif" font-size="14.00" fill="#000000">NUM</text>
<polyline fill="none" stroke="#000000" points="1066,-110.5 1134,-110.5 "/>
<text text-anchor="middle" x="1100" y="-95.3" font-family="Times,serif" font-size="14.00" fill="#000000">val = 2</text>
</g>
<!-- n8 -->
<g id="node8" class="node">
<title>n8</title>
<polygon fill="none" stroke="#000000" points="965,-120 965,-189 1027,-189 1027,-120 965,-120"/>
<text text-anchor="middle" x="996" y="-173.8" font-family="Times,serif" font-size="14.00" fill="#000000">+ : int</text>
<polyline fill="none" stroke="#000000" points="965,-166 1027,-166 "/>
<text text-anchor="middle" x="996" y="-150.8" font-family="Times,serif" font-size="14.00" fill="#000000">lhs</text>
<polyline fill="none" stroke="#000000" points="965,-143 1027,-143 "/>
<text text-anchor="middle" x="996" y="-127.8" font-family="Times,serif" font-size="14.00" fill="#000000">rhs</text>
</g>
<!-- n8&#45;&gt;n9 -->
<g id="edge4" class="edge">
<title>n8:lhs&#45;&gt;n9</title>
<path fill="none" stroke="#000000" d="M1027,-154.5C1036.4909,-154.5 1046.415,-156.1597 1055.7784,-158.5459"/>
<polygon fill="#000000" stroke="#000000" points="1055.0948,-161.9907 1065.6718,-161.3762 1057.0202,-155.2607 1055.0948,-161.9907"/>
</g>
<!-- n8&#45;&gt;n10 -->
<g id="edge5" class="edge">
<title>n8:rhs&#45;&gt;n10</title>
<path fill="none" stroke="#000000" d="M1027,-131.5C1036.4909,-131.5 1046.415,-129.8403 1055.7784,-127.4541"/>
<polygon fill="#000000" stroke="#000000" points="1057.0202,-130.7393 1065.6718,-124.6238 1055.0948,-124.0093 1057.0202,-130.7393"/>
</g>
<!-- n11 -->
<g id="node9" class="node">
<title>n11</title>
<polygon fill="none" stroke="#000000" points="962,-54.5 962,-100.5 1030,-100.5 1030,-54.5 962,-54.5"/>
<text text-anchor="middle" x="996" y="-85.3" font-family="Times,serif" font-size="14.00" fill="#000000">NUM</text>
<polyline fill="none" stroke="#000000" points="962,-77.5 1030,-77.5 "/>
<text text-anchor="middle" x="996" y="-62.3" font-family="Times,serif" font-size="14.00" fill="#000000">val = 3</text>
</g>
<!-- n7 -->
<g id="node10" class="node">
<title>n7</title>
<polygon fill="none" stroke="#000000" points="861,-93 861,-162 923,-162 923,-93 861,-93"/>
<text text-anchor="middle" x="892" y="-146.8" font-family="Times,serif" font-size="14.00" fill="#000000">+ : int</text>
<polyline fill="none" stroke="#000000" points="861,-139 923,-139 "/>
<text text-anchor="middle" x="892" y="-123.8" font-family="Times,serif" font-size="14.00" fill="#000000">lhs</text>
<polyline fill="none" stroke="#000000" points="861,-116 923,-116 "/>
<text text-anchor="middle" x="892" y="-100.8" font-family="Times,serif" font-size="14.00" fill="#000000">rhs</text>
</g>
<!-- n7&#45;&gt;n8 -->
<g id="edge6" class="edge">
<title>n7:lhs&#45;&gt;n8</title>
<path fill="none" stroke="#000000" d="M923,-127.5C933.8545,-127.5 945.0846,-130.1584 955.3859,-133.8069"/>
<polygon fill="#000000" stroke="#000000" points="954.3477,-137.1592 964.9352,-137.5538 956.9046,-130.6429 954.3477,-137.1592"/>
</g>
<!-- n7&#45;&gt;n11 -->
<g id="edge7" class="edge">
<title>n7:rhs&#45;&gt;n11</title>
<path fill="none" stroke="#000000" d="M923,-104.5C932.7281,-104.5 942.7579,-102.3647 952.1504,-99.2951"/>
<polygon fill="#000000" stroke="#000000" points="953.4824,-102.5347 961.6682,-95.8084 951.0745,-95.9618 953.4824,-102.5347"/>
</g>
<!-- n12 -->
<g id="node11" class="node">
<title>n12</title>
<polygon fill="none" stroke="#000000" points="858,-27.5 858,-73.5 926,-73.5 926,-27.5 858,-27.5"/>
<text text-anchor="middle" x="892" y="-58.3" font-family="Times,serif" font-size="14.00" fill="#000000">NUM</text>
<polyline fill="none" stroke="#000000" points="858,-50.5 926,-50.5 "/>
<text text-anchor="middle" x="892" y="-35.3" font-family="Times,serif" font-size="14.00" fill="#000000">val = 7</text>
</g>
<!-- n6 -->
<g id="node12" class="node">
<title>n6</title>
<polygon fill="none" stroke="#000000" points="699.5,-66 699.5,-135 756.5,-135 756.5,-66 699.5,-66"/>
<text text-anchor="middle" x="728" y="-119.8" font-family="Times,serif" font-size="14.00" fill="#000000">* : int</text>
<polyline fill="none" stroke="#000000" points="699.5,-112 756.5,-112 "/>
<text text-anchor="middle" x="728" y="-96.8" font-family="Times,serif" font-size="14.00" fill="#000000">lhs</text>
<polyline fill="none" stroke="#000000" points="699.5,-89 756.5,-89 "/>
<text text-anchor="middle" x="728" y="-73.8" font-family="Times,serif" font-size="14.00" fill="#000000">rhs</text>
</g>
<!-- n6&#45;&gt;n7 -->
<g id="edge8" class="edge">
<title>n6:lhs&#45;&gt;n7</title>
<path fill="none" stroke="#000000" d="M757,-100.5C789.109,-100.5 824.6941,-107.935 851.2652,-115.0019"/>
<polygon fill="#000000" stroke="#000000" points="850.4112,-118.3969 860.9815,-117.676 852.2688,-111.6478 850.4112,-118.3969"/>
</g>
<!-- n6&#45;&gt;n12 -->
<g id="edge9" class="edge">
<title>n6:rhs&#45;&gt;n12</title>
<path fill="none" stroke="#000000" d="M757,-77.5C787.807,-77.5 821.8139,-70.6557 847.9893,-63.8591"/>
<polygon fill="#000000" stroke="#000000" points="849.2271,-67.1506 857.9733,-61.1711 847.4072,-60.3912 849.2271,-67.1506"/>
</g>
<!-- n5&#45;&gt;n6 -->
<g id="edge10" class="edge">
<title>n5:init&#45;&gt;n6</title>
<path fill="none" stroke="#000000" d="M598,-97.5C628.6554,-97.5 663.3663,-98.3441 689.2051,-99.1368"/>
<polygon fill="#000000" stroke="#000000" points="689.2399,-102.6396 699.3461,-99.4592 689.4624,-95.6431 689.2399,-102.6396"/>
</g>
<!-- n14 -->
<g id="node14" class="node">
<title>n14</title>
<polygon fill="none" stroke="#000000" points="634,-.5 634,-46.5 822,-46.5 822,-.5 634,-.5"/>
<text text-anchor="middle" x="728" y="-31.3" font-family="Times,serif" font-size="14.00" fill="#000000">LOCAL_VARIABLE : int</text>
<polyline fill="none" stroke="#000000" points="634,-23.5 822,-23.5 "/>
<text text-anchor="middle" x="728" y="-8.3" font-family="Times,serif" font-size="14.00" fill="#000000">offset = 20</text>
</g>
<!-- n13&#45;&gt;n14 -->
<g id="edge12" class="edge">
<title>n13:expr&#45;&gt;n14</title>
<path fill="none" stroke="#000000" d="M540.5,-29.5C567.3578,-29.5 596.3685,-28.8774 623.3582,-28.0333"/>
<polygon fill="#000000" stroke="#000000" points="623.7139,-31.5237 633.5946,-27.6998 623.4859,-24.5274 623.7139,-31.5237"/>
</g>
</g>
</svg>
