<?xml version="1.0" encoding="UTF-8" standalone="no"?>
<!DOCTYPE svg PUBLIC "-//W3C//DTD SVG 1.1//EN" "http://www.w3.org/Graphics/SVG/1.1/DTD/svg11.dtd">
<!-- Generated by graphviz version 2.38.0 (20140413.2041)
 -->
<!-- Title: %3 Pages: 1 -->
<svg width="486pt" height="404pt" viewBox="0.00 0.00 486.09 404.00" xmlns="http://www.w3.org/2000/svg" xmlns:xlink="http://www.w3.org/1999/xlink">
<g id="graph0" class="graph" transform="scale(1 1) rotate(0) translate(4 400)">
<title>%3</title>
<polygon fill="white" stroke="none" points="-4,4 -4,-400 482.092,-400 482.092,4 -4,4"/>
<!-- TemplateDeclaration -->
<g id="node1" class="node"><title>TemplateDeclaration</title>
<ellipse fill="none" stroke="black" cx="165.546" cy="-378" rx="85.2851" ry="18"/>
<text text-anchor="middle" x="165.546" y="-374.3" font-family="Times,serif" font-size="14.00">TemplateDeclaration</text>
</g>
<!-- id1 -->
<g id="node2" class="node"><title>id1</title>
<ellipse fill="none" stroke="black" cx="43.5461" cy="-306" rx="43.5923" ry="18"/>
<text text-anchor="middle" x="43.5461" y="-302.3" font-family="Times,serif" font-size="14.00">Identifier</text>
</g>
<!-- TemplateDeclaration&#45;&gt;id1 -->
<g id="edge1" class="edge"><title>TemplateDeclaration-&gt;id1</title>
<path fill="none" stroke="black" d="M137.557,-360.941C119.541,-350.604 96.0277,-337.112 77.0237,-326.208"/>
<polygon fill="black" stroke="black" points="78.516,-323.03 68.1005,-321.089 75.0323,-329.101 78.516,-323.03"/>
</g>
<!-- ParameterList -->
<g id="node3" class="node"><title>ParameterList</title>
<ellipse fill="none" stroke="black" cx="165.546" cy="-306" rx="60.3893" ry="18"/>
<text text-anchor="middle" x="165.546" y="-302.3" font-family="Times,serif" font-size="14.00">ParameterList</text>
</g>
<!-- TemplateDeclaration&#45;&gt;ParameterList -->
<g id="edge2" class="edge"><title>TemplateDeclaration-&gt;ParameterList</title>
<path fill="none" stroke="black" d="M165.546,-359.697C165.546,-351.983 165.546,-342.712 165.546,-334.112"/>
<polygon fill="black" stroke="black" points="169.046,-334.104 165.546,-324.104 162.046,-334.104 169.046,-334.104"/>
</g>
<!-- TemplateBody -->
<g id="node4" class="node"><title>TemplateBody</title>
<ellipse fill="none" stroke="black" cx="307.546" cy="-306" rx="63.8893" ry="18"/>
<text text-anchor="middle" x="307.546" y="-302.3" font-family="Times,serif" font-size="14.00">TemplateBody</text>
</g>
<!-- TemplateDeclaration&#45;&gt;TemplateBody -->
<g id="edge3" class="edge"><title>TemplateDeclaration-&gt;TemplateBody</title>
<path fill="none" stroke="black" d="M197.414,-361.291C218.306,-350.992 245.772,-337.452 268.049,-326.47"/>
<polygon fill="black" stroke="black" points="269.822,-329.498 277.244,-321.938 266.727,-323.22 269.822,-329.498"/>
</g>
<!-- &quot;Box&quot; -->
<g id="node5" class="node"><title>"Box"</title>
<polygon fill="none" stroke="black" points="70.5461,-252 16.5461,-252 16.5461,-216 70.5461,-216 70.5461,-252"/>
<text text-anchor="middle" x="43.5461" y="-230.3" font-family="Times,serif" font-size="14.00">"Box"</text>
</g>
<!-- id1&#45;&gt;&quot;Box&quot; -->
<g id="edge4" class="edge"><title>id1-&gt;"Box"</title>
<path fill="none" stroke="black" d="M43.5461,-287.697C43.5461,-279.983 43.5461,-270.712 43.5461,-262.112"/>
<polygon fill="black" stroke="black" points="47.0462,-262.104 43.5461,-252.104 40.0462,-262.104 47.0462,-262.104"/>
</g>
<!-- &quot;T&quot; -->
<g id="node6" class="node"><title>"T"</title>
<ellipse fill="none" stroke="black" cx="165.546" cy="-234" rx="27" ry="18"/>
<text text-anchor="middle" x="165.546" y="-230.3" font-family="Times,serif" font-size="14.00">"T"</text>
</g>
<!-- ParameterList&#45;&gt;&quot;T&quot; -->
<g id="edge5" class="edge"><title>ParameterList-&gt;"T"</title>
<path fill="none" stroke="black" d="M165.546,-287.697C165.546,-279.983 165.546,-270.712 165.546,-262.112"/>
<polygon fill="black" stroke="black" points="169.046,-262.104 165.546,-252.104 162.046,-262.104 169.046,-262.104"/>
</g>
<!-- StructDeclaration -->
<g id="node7" class="node"><title>StructDeclaration</title>
<ellipse fill="none" stroke="black" cx="307.546" cy="-234" rx="72.5877" ry="18"/>
<text text-anchor="middle" x="307.546" y="-230.3" font-family="Times,serif" font-size="14.00">StructDeclaration</text>
</g>
<!-- TemplateBody&#45;&gt;StructDeclaration -->
<g id="edge6" class="edge"><title>TemplateBody-&gt;StructDeclaration</title>
<path fill="none" stroke="black" d="M307.546,-287.697C307.546,-279.983 307.546,-270.712 307.546,-262.112"/>
<polygon fill="black" stroke="black" points="311.046,-262.104 307.546,-252.104 304.046,-262.104 311.046,-262.104"/>
</g>
<!-- id2 -->
<g id="node8" class="node"><title>id2</title>
<ellipse fill="none" stroke="black" cx="235.546" cy="-162" rx="43.5923" ry="18"/>
<text text-anchor="middle" x="235.546" y="-158.3" font-family="Times,serif" font-size="14.00">Identifier</text>
</g>
<!-- StructDeclaration&#45;&gt;id2 -->
<g id="edge7" class="edge"><title>StructDeclaration-&gt;id2</title>
<path fill="none" stroke="black" d="M290.483,-216.411C281.205,-207.39 269.58,-196.088 259.416,-186.207"/>
<polygon fill="black" stroke="black" points="261.601,-183.449 251.991,-178.988 256.721,-188.468 261.601,-183.449"/>
</g>
<!-- MemberDeclaration -->
<g id="node9" class="node"><title>MemberDeclaration</title>
<ellipse fill="none" stroke="black" cx="379.546" cy="-162" rx="82.5854" ry="18"/>
<text text-anchor="middle" x="379.546" y="-158.3" font-family="Times,serif" font-size="14.00">MemberDeclaration</text>
</g>
<!-- StructDeclaration&#45;&gt;MemberDeclaration -->
<g id="edge8" class="edge"><title>StructDeclaration-&gt;MemberDeclaration</title>
<path fill="none" stroke="black" d="M324.609,-216.411C333.623,-207.648 344.85,-196.732 354.802,-187.057"/>
<polygon fill="black" stroke="black" points="357.375,-189.437 362.105,-179.956 352.496,-184.418 357.375,-189.437"/>
</g>
<!-- box2 -->
<g id="node10" class="node"><title>box2</title>
<polygon fill="none" stroke="black" points="262.546,-108 208.546,-108 208.546,-72 262.546,-72 262.546,-108"/>
<text text-anchor="middle" x="235.546" y="-86.3" font-family="Times,serif" font-size="14.00">"Box"</text>
</g>
<!-- id2&#45;&gt;box2 -->
<g id="edge9" class="edge"><title>id2-&gt;box2</title>
<path fill="none" stroke="black" d="M235.546,-143.697C235.546,-135.983 235.546,-126.712 235.546,-118.112"/>
<polygon fill="black" stroke="black" points="239.046,-118.104 235.546,-108.104 232.046,-118.104 239.046,-118.104"/>
</g>
<!-- Type -->
<g id="node11" class="node"><title>Type</title>
<ellipse fill="none" stroke="black" cx="344.546" cy="-90" rx="28.6953" ry="18"/>
<text text-anchor="middle" x="344.546" y="-86.3" font-family="Times,serif" font-size="14.00">Type</text>
</g>
<!-- MemberDeclaration&#45;&gt;Type -->
<g id="edge10" class="edge"><title>MemberDeclaration-&gt;Type</title>
<path fill="none" stroke="black" d="M371.074,-144.055C366.929,-135.767 361.855,-125.618 357.258,-116.424"/>
<polygon fill="black" stroke="black" points="360.302,-114.686 352.7,-107.307 354.041,-117.817 360.302,-114.686"/>
</g>
<!-- id3 -->
<g id="node12" class="node"><title>id3</title>
<ellipse fill="none" stroke="black" cx="434.546" cy="-90" rx="43.5923" ry="18"/>
<text text-anchor="middle" x="434.546" y="-86.3" font-family="Times,serif" font-size="14.00">Identifier</text>
</g>
<!-- MemberDeclaration&#45;&gt;id3 -->
<g id="edge11" class="edge"><title>MemberDeclaration-&gt;id3</title>
<path fill="none" stroke="black" d="M392.86,-144.055C399.647,-135.418 408.021,-124.76 415.478,-115.268"/>
<polygon fill="black" stroke="black" points="418.307,-117.333 421.733,-107.307 412.803,-113.008 418.307,-117.333"/>
</g>
<!-- t2 -->
<g id="node13" class="node"><title>t2</title>
<polygon fill="none" stroke="black" points="371.546,-36 317.546,-36 317.546,-0 371.546,-0 371.546,-36"/>
<text text-anchor="middle" x="344.546" y="-14.3" font-family="Times,serif" font-size="14.00">"T"</text>
</g>
<!-- Type&#45;&gt;t2 -->
<g id="edge12" class="edge"><title>Type-&gt;t2</title>
<path fill="none" stroke="black" d="M344.546,-71.6966C344.546,-63.9827 344.546,-54.7125 344.546,-46.1124"/>
<polygon fill="black" stroke="black" points="348.046,-46.1043 344.546,-36.1043 341.046,-46.1044 348.046,-46.1043"/>
</g>
<!-- &quot;data&quot; -->
<g id="node14" class="node"><title>"data"</title>
<polygon fill="none" stroke="black" points="461.546,-36 407.546,-36 407.546,-0 461.546,-0 461.546,-36"/>
<text text-anchor="middle" x="434.546" y="-14.3" font-family="Times,serif" font-size="14.00">"data"</text>
</g>
<!-- id3&#45;&gt;&quot;data&quot; -->
<g id="edge13" class="edge"><title>id3-&gt;"data"</title>
<path fill="none" stroke="black" d="M434.546,-71.6966C434.546,-63.9827 434.546,-54.7125 434.546,-46.1124"/>
<polygon fill="black" stroke="black" points="438.046,-46.1043 434.546,-36.1043 431.046,-46.1044 438.046,-46.1043"/>
</g>
</g>
</svg>