<?xml version="1.0" encoding="UTF-8" standalone="no"?>
<!DOCTYPE svg PUBLIC "-//W3C//DTD SVG 1.1//EN" "http://www.w3.org/Graphics/SVG/1.1/DTD/svg11.dtd">
<!-- Generated by graphviz version 2.38.0 (20140413.2041)
 -->
<!-- Title: %3 Pages: 1 -->
<svg width="298pt" height="260pt" viewBox="0.00 0.00 298.09 260.00" xmlns="http://www.w3.org/2000/svg" xmlns:xlink="http://www.w3.org/1999/xlink">
<g id="graph0" class="graph" transform="scale(1 1) rotate(0) translate(4 256)">
<title>%3</title>
<polygon fill="white" stroke="none" points="-4,4 -4,-256 294.092,-256 294.092,4 -4,4"/>
<!-- StructDeclaration -->
<g id="node1" class="node"><title>StructDeclaration</title>
<ellipse fill="none" stroke="black" cx="115.546" cy="-234" rx="72.5877" ry="18"/>
<text text-anchor="middle" x="115.546" y="-230.3" font-family="Times,serif" font-size="14.00">StructDeclaration</text>
</g>
<!-- id2 -->
<g id="node2" class="node"><title>id2</title>
<ellipse fill="none" stroke="black" cx="43.5461" cy="-162" rx="43.5923" ry="18"/>
<text text-anchor="middle" x="43.5461" y="-158.3" font-family="Times,serif" font-size="14.00">Identifier</text>
</g>
<!-- StructDeclaration&#45;&gt;id2 -->
<g id="edge1" class="edge"><title>StructDeclaration-&gt;id2</title>
<path fill="none" stroke="black" d="M98.4831,-216.411C89.2046,-207.39 77.5797,-196.088 67.4157,-186.207"/>
<polygon fill="black" stroke="black" points="69.6008,-183.449 59.9911,-178.988 64.7212,-188.468 69.6008,-183.449"/>
</g>
<!-- MemberDeclaration -->
<g id="node3" class="node"><title>MemberDeclaration</title>
<ellipse fill="none" stroke="black" cx="187.546" cy="-162" rx="82.5854" ry="18"/>
<text text-anchor="middle" x="187.546" y="-158.3" font-family="Times,serif" font-size="14.00">MemberDeclaration</text>
</g>
<!-- StructDeclaration&#45;&gt;MemberDeclaration -->
<g id="edge2" class="edge"><title>StructDeclaration-&gt;MemberDeclaration</title>
<path fill="none" stroke="black" d="M132.609,-216.411C141.623,-207.648 152.85,-196.732 162.802,-187.057"/>
<polygon fill="black" stroke="black" points="165.375,-189.437 170.105,-179.956 160.496,-184.418 165.375,-189.437"/>
</g>
<!-- box2 -->
<g id="node4" class="node"><title>box2</title>
<polygon fill="none" stroke="black" points="78.5461,-108 8.54614,-108 8.54614,-72 78.5461,-72 78.5461,-108"/>
<text text-anchor="middle" x="43.5461" y="-86.3" font-family="Times,serif" font-size="14.00">"Box!int"</text>
</g>
<!-- id2&#45;&gt;box2 -->
<g id="edge3" class="edge"><title>id2-&gt;box2</title>
<path fill="none" stroke="black" d="M43.5461,-143.697C43.5461,-135.983 43.5461,-126.712 43.5461,-118.112"/>
<polygon fill="black" stroke="black" points="47.0462,-118.104 43.5461,-108.104 40.0462,-118.104 47.0462,-118.104"/>
</g>
<!-- Type -->
<g id="node5" class="node"><title>Type</title>
<ellipse fill="none" stroke="black" cx="156.546" cy="-90" rx="28.6953" ry="18"/>
<text text-anchor="middle" x="156.546" y="-86.3" font-family="Times,serif" font-size="14.00">Type</text>
</g>
<!-- MemberDeclaration&#45;&gt;Type -->
<g id="edge4" class="edge"><title>MemberDeclaration-&gt;Type</title>
<path fill="none" stroke="black" d="M180.042,-144.055C176.463,-135.973 172.1,-126.121 168.11,-117.112"/>
<polygon fill="black" stroke="black" points="171.231,-115.515 163.981,-107.789 164.83,-118.35 171.231,-115.515"/>
</g>
<!-- id3 -->
<g id="node6" class="node"><title>id3</title>
<ellipse fill="none" stroke="black" cx="246.546" cy="-90" rx="43.5923" ry="18"/>
<text text-anchor="middle" x="246.546" y="-86.3" font-family="Times,serif" font-size="14.00">Identifier</text>
</g>
<!-- MemberDeclaration&#45;&gt;id3 -->
<g id="edge5" class="edge"><title>MemberDeclaration-&gt;id3</title>
<path fill="none" stroke="black" d="M201.828,-144.055C209.182,-135.33 218.273,-124.544 226.334,-114.981"/>
<polygon fill="black" stroke="black" points="229.033,-117.209 232.802,-107.307 223.681,-112.698 229.033,-117.209"/>
</g>
<!-- t2 -->
<g id="node7" class="node"><title>t2</title>
<polygon fill="none" stroke="black" points="183.546,-36 129.546,-36 129.546,-0 183.546,-0 183.546,-36"/>
<text text-anchor="middle" x="156.546" y="-14.3" font-family="Times,serif" font-size="14.00">"int"</text>
</g>
<!-- Type&#45;&gt;t2 -->
<g id="edge6" class="edge"><title>Type-&gt;t2</title>
<path fill="none" stroke="black" d="M156.546,-71.6966C156.546,-63.9827 156.546,-54.7125 156.546,-46.1124"/>
<polygon fill="black" stroke="black" points="160.046,-46.1043 156.546,-36.1043 153.046,-46.1044 160.046,-46.1043"/>
</g>
<!-- &quot;data&quot; -->
<g id="node8" class="node"><title>"data"</title>
<polygon fill="none" stroke="black" points="273.546,-36 219.546,-36 219.546,-0 273.546,-0 273.546,-36"/>
<text text-anchor="middle" x="246.546" y="-14.3" font-family="Times,serif" font-size="14.00">"data"</text>
</g>
<!-- id3&#45;&gt;&quot;data&quot; -->
<g id="edge7" class="edge"><title>id3-&gt;"data"</title>
<path fill="none" stroke="black" d="M246.546,-71.6966C246.546,-63.9827 246.546,-54.7125 246.546,-46.1124"/>
<polygon fill="black" stroke="black" points="250.046,-46.1043 246.546,-36.1043 243.046,-46.1044 250.046,-46.1043"/>
</g>
</g>
</svg>